<?xml version="1.0" encoding="UTF-8"?>
<svg id="Layer_2" data-name="Layer 2" xmlns="http://www.w3.org/2000/svg" viewBox="0 0 9.09 11.2">
  <defs>
    <style>
      .cls-1 {
        fill: #ffdc4c;
      }

      .cls-2 {
        font-family: MS-PGothic, 'MS PGothic';
        font-size: 1.84px;
      }

      .cls-3 {
        fill: #ff9d08;
      }
    </style>
  </defs>
  <g id="Layer_1-2" data-name="Layer 1">
    <g>
      <g>
        <g>
          <g>
            <path class="cls-3" d="M5.39,5.55h0s0,0,0,0Z"/>
            <path class="cls-3" d="M5.33,5.33c-.06-.12-.18-.23-.34-.33-.18-.1-.4-.17-.63-.21l-.08-.04h-.49l-.08,.04c-.24,.03-.46,.1-.64,.21-.16,.1-.28,.21-.34,.33l-.06,.03v.31c0,.2,.14,.4,.4,.55,.53,.31,1.39,.31,1.92,0,.26-.15,.39-.35,.39-.55v-.31l-.06-.03Z"/>
          </g>
          <g>
            <path class="cls-1" d="M4.99,4.8c-.53-.31-1.39-.31-1.92,0-.53,.31-.53,.81,0,1.11,.53,.31,1.39,.31,1.92,0,.53-.31,.53-.81,0-1.11"/>
            <path class="cls-3" d="M4.03,4.66c-.35,0-.67,.08-.91,.22-.23,.13-.35,.3-.35,.48,0,.18,.13,.35,.36,.48,.24,.14,.57,.22,.92,.22h0c.35,0,.67-.08,.91-.22,.23-.13,.35-.3,.35-.48,0-.18-.13-.35-.36-.48-.24-.14-.57-.22-.92-.22Z"/>
            <path class="cls-1" d="M4.08,4.72c-.35,0-.67,.08-.91,.22-.23,.13-.35,.3-.35,.48,0,.18,.13,.35,.36,.48,.24,.14,.57,.22,.92,.22h0c.35,0,.67-.08,.91-.22,.23-.13,.35-.3,.35-.48,0-.18-.13-.35-.36-.48-.24-.14-.57-.22-.92-.22Z"/>
          </g>
          <path class="cls-3" d="M4.75,4.98l-.1-.06s-.05-.01-.07,0l-.08,.05c-.11-.04-.21-.06-.32-.06-.1,0-.19,.03-.27,.07-.08,.05-.12,.09-.12,.14,0,.05,.02,.1,.07,.15,0,0,.02,.02,.04,.04,.04,.05,.07,.09,.08,.12,.01,.03,0,.05-.03,.07-.07,.04-.15,.03-.24-.02-.05-.03-.1-.07-.14-.11-.02-.02-.03-.04-.04-.07,0,0,0-.01-.02-.02-.03-.01-.07-.02-.1,0l-.11,.06s-.02,.02-.01,.03c.04,.06,.1,.11,.19,.17l-.09,.05s-.02,.03,0,.04l.1,.06s.05,.01,.07,0l.1-.06c.1,.04,.2,.06,.3,.05,.1,0,.19-.03,.27-.08,.06-.03,.09-.07,.1-.1,.01-.03,0-.07,0-.1-.02-.04-.05-.08-.09-.12-.04-.04-.06-.07-.07-.09-.01-.02-.02-.04-.02-.05,0-.02,.01-.03,.04-.05,.03-.02,.07-.03,.11-.02,.04,0,.09,.02,.13,.04,.05,.03,.09,.06,.11,.1,.01,.02,.02,.03,.03,.05,0,0,0,.01,.02,.02,.03,.01,.07,.02,.1,0l.11-.06s.02-.02,.01-.03c-.02-.02-.03-.04-.05-.06-.02-.02-.05-.05-.09-.07l.07-.04s.02-.03,0-.04"/>
        </g>
        <g>
          <g>
            <path class="cls-3" d="M5.42,5.16h0s0,0,0,0Z"/>
            <path class="cls-3" d="M5.36,4.93c-.06-.12-.18-.23-.34-.33-.18-.11-.4-.17-.63-.21l-.08-.04h-.49l-.08,.04c-.24,.03-.46,.1-.64,.21-.16,.1-.28,.21-.34,.33l-.06,.03v.31c0,.2,.14,.4,.4,.55,.53,.31,1.39,.31,1.92,0,.26-.15,.39-.35,.39-.55v-.31l-.06-.03Z"/>
          </g>
          <g>
            <path class="cls-1" d="M5.02,4.4c-.53-.31-1.39-.31-1.92,0-.53,.31-.53,.81,0,1.11,.53,.31,1.39,.31,1.92,0,.53-.31,.53-.81,0-1.11"/>
            <path class="cls-3" d="M4.06,4.26c-.35,0-.67,.08-.91,.22-.23,.13-.35,.3-.35,.48,0,.18,.13,.35,.36,.48,.24,.14,.57,.22,.92,.22h0c.35,0,.67-.08,.91-.22,.23-.13,.35-.3,.35-.48,0-.18-.13-.35-.36-.48-.24-.14-.57-.22-.92-.22Z"/>
            <path class="cls-1" d="M4.11,4.32c-.35,0-.67,.08-.91,.22-.23,.13-.35,.3-.35,.48,0,.18,.13,.35,.36,.48,.24,.14,.57,.22,.92,.22h0c.35,0,.67-.08,.91-.22,.23-.13,.35-.3,.35-.48,0-.18-.13-.35-.36-.48-.24-.14-.57-.22-.92-.22Z"/>
          </g>
          <path class="cls-3" d="M4.78,4.58l-.1-.06s-.05-.01-.07,0l-.08,.05c-.11-.04-.21-.06-.32-.06-.1,0-.19,.03-.27,.07-.08,.05-.12,.09-.12,.14,0,.05,.02,.1,.07,.15,0,0,.02,.02,.04,.04,.04,.05,.07,.09,.08,.12,.01,.03,0,.05-.03,.07-.07,.04-.15,.03-.24-.02-.05-.03-.1-.07-.14-.11-.02-.02-.03-.04-.04-.07,0,0,0-.01-.02-.02-.03-.01-.07-.02-.1,0l-.11,.06s-.02,.02-.01,.03c.04,.06,.1,.11,.19,.17l-.09,.05s-.02,.03,0,.04l.1,.06s.05,.01,.07,0l.1-.06c.1,.04,.2,.06,.3,.05,.1,0,.19-.03,.27-.08,.06-.03,.09-.07,.1-.1,.01-.03,0-.07,0-.1-.02-.04-.05-.08-.09-.12-.04-.04-.06-.07-.07-.09-.01-.02-.02-.04-.02-.05,0-.02,.01-.03,.04-.05,.03-.02,.07-.03,.11-.02,.04,0,.09,.02,.13,.04,.05,.03,.09,.06,.11,.1,.01,.02,.02,.03,.03,.05,0,0,0,.01,.02,.02,.03,.01,.07,.02,.1,0l.11-.06s.02-.02,.01-.03c-.02-.02-.03-.04-.05-.06-.02-.02-.05-.05-.09-.07l.07-.04s.02-.03,0-.04"/>
        </g>
        <g>
          <g>
            <path class="cls-3" d="M5.5,4.77h0s0,0,0,0Z"/>
            <path class="cls-3" d="M5.44,4.55c-.06-.12-.18-.23-.34-.33-.18-.1-.4-.17-.63-.21l-.08-.04h-.49l-.08,.04c-.24,.03-.46,.1-.64,.21-.16,.1-.28,.21-.34,.33l-.06,.03v.31c0,.2,.14,.4,.4,.55,.53,.31,1.39,.31,1.92,0,.26-.15,.39-.35,.39-.55v-.31l-.06-.03Z"/>
          </g>
          <g>
            <path class="cls-1" d="M5.1,4.01c-.53-.31-1.39-.31-1.92,0-.53,.31-.53,.81,0,1.11,.53,.31,1.39,.31,1.92,0,.53-.31,.53-.81,0-1.11"/>
            <path class="cls-3" d="M4.13,3.88c-.35,0-.67,.08-.91,.22-.23,.13-.35,.3-.35,.48,0,.18,.13,.35,.36,.48,.24,.14,.57,.22,.92,.22h0c.35,0,.67-.08,.91-.22,.23-.13,.35-.3,.35-.48,0-.18-.13-.35-.36-.48-.24-.14-.57-.22-.92-.22Z"/>
            <path class="cls-1" d="M4.18,3.94c-.35,0-.67,.08-.91,.22-.23,.13-.35,.3-.35,.48,0,.18,.13,.35,.36,.48,.24,.14,.57,.22,.92,.22h0c.35,0,.67-.08,.91-.22,.23-.13,.35-.3,.35-.48,0-.18-.13-.35-.36-.48-.24-.14-.57-.22-.92-.22Z"/>
          </g>
          <path class="cls-3" d="M4.85,4.19l-.1-.06s-.05-.01-.07,0l-.08,.05c-.11-.04-.21-.06-.32-.06-.1,0-.19,.03-.27,.07-.08,.05-.12,.09-.12,.14,0,.05,.02,.1,.07,.15,0,0,.02,.02,.04,.04,.04,.05,.07,.09,.08,.12,.01,.03,0,.05-.03,.07-.07,.04-.15,.03-.24-.02-.05-.03-.1-.07-.14-.11-.02-.02-.03-.04-.04-.07,0,0,0-.01-.02-.02-.03-.01-.07-.02-.1,0l-.11,.06s-.02,.02-.01,.03c.04,.06,.1,.11,.19,.17l-.09,.05s-.02,.03,0,.04l.1,.06s.05,.01,.07,0l.1-.06c.1,.04,.2,.06,.3,.05,.1,0,.19-.03,.27-.08,.06-.03,.09-.07,.1-.1,.01-.03,0-.07,0-.1-.02-.04-.05-.08-.09-.12-.04-.04-.06-.07-.07-.09-.01-.02-.02-.04-.02-.05,0-.02,.01-.03,.04-.05,.03-.02,.07-.03,.11-.02,.04,0,.09,.02,.13,.04,.05,.03,.09,.06,.11,.1,.01,.02,.02,.03,.03,.05,0,0,0,.01,.02,.02,.03,.01,.07,.02,.1,0l.11-.06s.02-.02,.01-.03c-.02-.02-.03-.04-.05-.06-.02-.02-.05-.05-.09-.07l.07-.04s.02-.03,0-.04"/>
        </g>
        <g>
          <g>
            <path class="cls-3" d="M5.46,4.37h0s0,0,0,0Z"/>
            <path class="cls-3" d="M5.4,4.14c-.06-.12-.18-.23-.34-.33-.18-.1-.4-.17-.63-.21l-.08-.04h-.49l-.08,.04c-.24,.03-.46,.1-.64,.21-.16,.1-.28,.21-.34,.33l-.06,.03v.31c0,.2,.14,.4,.4,.55,.53,.31,1.39,.31,1.92,0,.26-.15,.39-.35,.39-.55v-.31l-.06-.03Z"/>
          </g>
          <g>
            <path class="cls-1" d="M5.05,3.61c-.53-.31-1.39-.31-1.92,0-.53,.31-.53,.81,0,1.11,.53,.31,1.39,.31,1.92,0,.53-.31,.53-.81,0-1.11"/>
            <path class="cls-3" d="M4.09,3.47c-.35,0-.67,.08-.91,.22-.23,.13-.35,.3-.35,.48,0,.18,.13,.35,.36,.48,.24,.14,.57,.22,.92,.22h0c.35,0,.67-.08,.91-.22,.23-.13,.35-.3,.35-.48,0-.18-.13-.35-.36-.48-.24-.14-.57-.22-.92-.22Z"/>
            <path class="cls-1" d="M4.14,3.53c-.35,0-.67,.08-.91,.22-.23,.13-.35,.3-.35,.48,0,.18,.13,.35,.36,.48,.24,.14,.57,.22,.92,.22h0c.35,0,.67-.08,.91-.22,.23-.13,.35-.3,.35-.48,0-.18-.13-.35-.36-.48-.24-.14-.57-.22-.92-.22Z"/>
          </g>
          <path class="cls-3" d="M4.81,3.79l-.1-.06s-.05-.01-.07,0l-.08,.05c-.11-.04-.21-.06-.32-.06-.1,0-.19,.03-.27,.07-.08,.05-.12,.09-.12,.14,0,.05,.02,.1,.07,.15,0,0,.02,.02,.04,.04,.04,.05,.07,.09,.08,.12,.01,.03,0,.05-.03,.07-.07,.04-.15,.03-.24-.02-.05-.03-.1-.07-.14-.11-.02-.02-.03-.04-.04-.07,0,0,0-.01-.02-.02-.03-.01-.07-.02-.1,0l-.11,.06s-.02,.02-.01,.03c.04,.06,.1,.11,.19,.17l-.09,.05s-.02,.03,0,.04l.1,.06s.05,.01,.07,0l.1-.06c.1,.04,.2,.06,.3,.05,.1,0,.19-.03,.27-.08,.06-.03,.09-.07,.1-.1,.01-.03,0-.07,0-.1-.02-.04-.05-.08-.09-.12-.04-.04-.06-.07-.07-.09-.01-.02-.02-.04-.02-.05,0-.02,.01-.03,.04-.05,.03-.02,.07-.03,.11-.02,.04,0,.09,.02,.13,.04,.05,.03,.09,.06,.11,.1,.01,.02,.02,.03,.03,.05,0,0,0,.01,.02,.02,.03,.01,.07,.02,.1,0l.11-.06s.02-.02,.01-.03c-.02-.02-.03-.04-.05-.06-.02-.02-.05-.05-.09-.07l.07-.04s.02-.03,0-.04"/>
        </g>
        <g>
          <g>
            <path class="cls-3" d="M5.39,3.96h0s0,0,0,0Z"/>
            <path class="cls-3" d="M5.33,3.74c-.06-.12-.18-.23-.34-.33-.18-.1-.4-.17-.63-.21l-.08-.04h-.49l-.08,.04c-.24,.03-.46,.1-.64,.21-.16,.1-.28,.21-.34,.33l-.06,.03v.31c0,.2,.14,.4,.4,.55,.53,.31,1.39,.31,1.92,0,.26-.15,.39-.35,.39-.55v-.31l-.06-.03Z"/>
          </g>
          <g>
            <path class="cls-1" d="M4.99,3.2c-.53-.31-1.39-.31-1.92,0-.53,.31-.53,.81,0,1.11,.53,.31,1.39,.31,1.92,0,.53-.31,.53-.81,0-1.11"/>
            <path class="cls-3" d="M4.03,3.07c-.35,0-.67,.08-.91,.22-.23,.13-.35,.3-.35,.48,0,.18,.13,.35,.36,.48,.24,.14,.57,.22,.92,.22h0c.35,0,.67-.08,.91-.22,.23-.13,.35-.3,.35-.48,0-.18-.13-.35-.36-.48-.24-.14-.57-.22-.92-.22Z"/>
            <path class="cls-1" d="M4.08,3.13c-.35,0-.67,.08-.91,.22-.23,.13-.35,.3-.35,.48,0,.18,.13,.35,.36,.48,.24,.14,.57,.22,.92,.22h0c.35,0,.67-.08,.91-.22,.23-.13,.35-.3,.35-.48,0-.18-.13-.35-.36-.48-.24-.14-.57-.22-.92-.22Z"/>
          </g>
          <path class="cls-3" d="M4.75,3.38l-.1-.06s-.05-.01-.07,0l-.08,.05c-.11-.04-.21-.06-.32-.06-.1,0-.19,.03-.27,.07-.08,.05-.12,.09-.12,.14,0,.05,.02,.1,.07,.15,0,0,.02,.02,.04,.04,.04,.05,.07,.09,.08,.12,.01,.03,0,.05-.03,.07-.07,.04-.15,.03-.24-.02-.05-.03-.1-.07-.14-.11-.02-.02-.03-.04-.04-.07,0,0,0-.01-.02-.02-.03-.01-.07-.02-.1,0l-.11,.06s-.02,.02-.01,.03c.04,.06,.1,.11,.19,.17l-.09,.05s-.02,.03,0,.04l.1,.06s.05,.01,.07,0l.1-.06c.1,.04,.2,.06,.3,.05,.1,0,.19-.03,.27-.08,.06-.03,.09-.07,.1-.1,.01-.03,0-.07,0-.1-.02-.04-.05-.08-.09-.12-.04-.04-.06-.07-.07-.09-.01-.02-.02-.04-.02-.05,0-.02,.01-.03,.04-.05,.03-.02,.07-.03,.11-.02,.04,0,.09,.02,.13,.04,.05,.03,.09,.06,.11,.1,.01,.02,.02,.03,.03,.05,0,0,0,.01,.02,.02,.03,.01,.07,.02,.1,0l.11-.06s.02-.02,.01-.03c-.02-.02-.03-.04-.05-.06-.02-.02-.05-.05-.09-.07l.07-.04s.02-.03,0-.04"/>
        </g>
        <g>
          <g>
            <path class="cls-3" d="M5.38,3.61h0s0,0,0,0Z"/>
            <path class="cls-3" d="M5.32,3.39c-.06-.12-.18-.23-.34-.33-.18-.11-.4-.17-.63-.21l-.08-.04h-.49l-.08,.04c-.24,.03-.46,.1-.64,.21-.16,.1-.28,.21-.34,.33l-.06,.03v.31c0,.2,.14,.4,.4,.55,.53,.31,1.39,.31,1.92,0,.26-.15,.39-.35,.39-.55v-.31l-.06-.03Z"/>
          </g>
          <g>
            <path class="cls-1" d="M4.98,2.86c-.53-.31-1.39-.31-1.92,0-.53,.31-.53,.81,0,1.11,.53,.31,1.39,.31,1.92,0,.53-.31,.53-.81,0-1.11"/>
            <path class="cls-3" d="M4.02,2.72c-.35,0-.67,.08-.91,.22-.23,.13-.35,.3-.35,.48,0,.18,.13,.35,.36,.48,.24,.14,.57,.22,.92,.22h0c.35,0,.67-.08,.91-.22,.23-.13,.35-.3,.35-.48,0-.18-.13-.35-.36-.48-.24-.14-.57-.22-.92-.22Z"/>
            <path class="cls-1" d="M4.07,2.78c-.35,0-.67,.08-.91,.22-.23,.13-.35,.3-.35,.48,0,.18,.13,.35,.36,.48,.24,.14,.57,.22,.92,.22h0c.35,0,.67-.08,.91-.22,.23-.13,.35-.3,.35-.48,0-.18-.13-.35-.36-.48-.24-.14-.57-.22-.92-.22Z"/>
          </g>
          <path class="cls-3" d="M4.74,3.04l-.1-.06s-.05-.01-.07,0l-.08,.05c-.11-.04-.21-.06-.32-.06-.1,0-.19,.03-.27,.07-.08,.05-.12,.09-.12,.14,0,.05,.02,.1,.07,.15,0,0,.02,.02,.04,.04,.04,.05,.07,.09,.08,.12,.01,.03,0,.05-.03,.07-.07,.04-.15,.03-.24-.02-.05-.03-.1-.07-.14-.11-.02-.02-.03-.04-.04-.07,0,0,0-.01-.02-.02-.03-.01-.07-.02-.1,0l-.11,.06s-.02,.02-.01,.03c.04,.06,.1,.11,.19,.17l-.09,.05s-.02,.03,0,.04l.1,.06s.05,.01,.07,0l.1-.06c.1,.04,.2,.06,.3,.05,.1,0,.19-.03,.27-.08,.06-.03,.09-.07,.1-.1,.01-.03,0-.07,0-.1-.02-.04-.05-.08-.09-.12-.04-.04-.06-.07-.07-.09-.01-.02-.02-.04-.02-.05,0-.02,.01-.03,.04-.05,.03-.02,.07-.03,.11-.02,.04,0,.09,.02,.13,.04,.05,.03,.09,.06,.11,.1,.01,.02,.02,.03,.03,.05,0,0,0,.01,.02,.02,.03,.01,.07,.02,.1,0l.11-.06s.02-.02,.01-.03c-.02-.02-.03-.04-.05-.06-.02-.02-.05-.05-.09-.07l.07-.04s.02-.03,0-.04"/>
        </g>
        <g>
          <g>
            <path class="cls-3" d="M5.46,3.17h0s0,0,0,0Z"/>
            <path class="cls-3" d="M5.4,2.94c-.06-.12-.18-.23-.34-.33-.18-.1-.4-.17-.63-.21l-.08-.04h-.49l-.08,.04c-.24,.03-.46,.1-.64,.21-.16,.1-.28,.21-.34,.33l-.06,.03v.31c0,.2,.14,.4,.4,.55,.53,.31,1.39,.31,1.92,0,.26-.15,.39-.35,.39-.55v-.31l-.06-.03Z"/>
          </g>
          <g>
            <path class="cls-1" d="M5.06,2.41c-.53-.31-1.39-.31-1.92,0-.53,.31-.53,.81,0,1.11,.53,.31,1.39,.31,1.92,0,.53-.31,.53-.81,0-1.11"/>
            <path class="cls-3" d="M4.1,2.27c-.35,0-.67,.08-.91,.22-.23,.13-.35,.3-.35,.48,0,.18,.13,.35,.36,.48,.24,.14,.57,.22,.92,.22h0c.35,0,.67-.08,.91-.22,.23-.13,.35-.3,.35-.48,0-.18-.13-.35-.36-.48-.24-.14-.57-.22-.92-.22Z"/>
            <path class="cls-1" d="M4.15,2.33c-.35,0-.67,.08-.91,.22-.23,.13-.35,.3-.35,.48,0,.18,.13,.35,.36,.48,.24,.14,.57,.22,.92,.22h0c.35,0,.67-.08,.91-.22,.23-.13,.35-.3,.35-.48,0-.18-.13-.35-.36-.48-.24-.14-.57-.22-.92-.22Z"/>
          </g>
          <path class="cls-3" d="M4.82,2.59l-.1-.06s-.05-.01-.07,0l-.08,.05c-.11-.04-.21-.06-.32-.06-.1,0-.19,.03-.27,.07-.08,.05-.12,.09-.12,.14,0,.05,.02,.1,.07,.15,0,0,.02,.02,.04,.04,.04,.05,.07,.09,.08,.12,.01,.03,0,.05-.03,.07-.07,.04-.15,.03-.24-.02-.05-.03-.1-.07-.14-.11-.02-.02-.03-.04-.04-.07,0,0,0-.01-.02-.02-.03-.01-.07-.02-.1,0l-.11,.06s-.02,.02-.01,.03c.04,.06,.1,.11,.19,.17l-.09,.05s-.02,.03,0,.04l.1,.06s.05,.01,.07,0l.1-.06c.1,.04,.2,.06,.3,.05,.1,0,.19-.03,.27-.08,.06-.03,.09-.07,.1-.1,.01-.03,0-.07,0-.1-.02-.04-.05-.08-.09-.12-.04-.04-.06-.07-.07-.09-.01-.02-.02-.04-.02-.05,0-.02,.01-.03,.04-.05,.03-.02,.07-.03,.11-.02,.04,0,.09,.02,.13,.04,.05,.03,.09,.06,.11,.1,.01,.02,.02,.03,.03,.05,0,0,0,.01,.02,.02,.03,.01,.07,.02,.1,0l.11-.06s.02-.02,.01-.03c-.02-.02-.03-.04-.05-.06-.02-.02-.05-.05-.09-.07l.07-.04s.02-.03,0-.04"/>
        </g>
        <g>
          <g>
            <path class="cls-3" d="M5.42,2.76h0s0,0,0,0Z"/>
            <path class="cls-3" d="M5.36,2.54c-.06-.12-.18-.23-.34-.33-.18-.11-.4-.17-.63-.21l-.08-.04h-.49l-.08,.04c-.24,.03-.46,.1-.64,.21-.16,.1-.28,.21-.34,.33l-.06,.03v.31c0,.2,.14,.4,.4,.55,.53,.31,1.39,.31,1.92,0,.26-.15,.39-.35,.39-.55v-.31l-.06-.03Z"/>
          </g>
          <g>
            <path class="cls-1" d="M5.02,2c-.53-.31-1.39-.31-1.92,0-.53,.31-.53,.81,0,1.11,.53,.31,1.39,.31,1.92,0,.53-.31,.53-.81,0-1.11"/>
            <path class="cls-3" d="M4.06,1.87c-.35,0-.67,.08-.91,.22-.23,.13-.35,.3-.35,.48,0,.18,.13,.35,.36,.48,.24,.14,.57,.22,.92,.22h0c.35,0,.67-.08,.91-.22,.23-.13,.35-.3,.35-.48,0-.18-.13-.35-.36-.48-.24-.14-.57-.22-.92-.22Z"/>
            <path class="cls-1" d="M4.11,1.93c-.35,0-.67,.08-.91,.22-.23,.13-.35,.3-.35,.48,0,.18,.13,.35,.36,.48,.24,.14,.57,.22,.92,.22h0c.35,0,.67-.08,.91-.22,.23-.13,.35-.3,.35-.48,0-.18-.13-.35-.36-.48-.24-.14-.57-.22-.92-.22Z"/>
          </g>
          <path class="cls-3" d="M4.78,2.18l-.1-.06s-.05-.01-.07,0l-.08,.05c-.11-.04-.21-.06-.32-.06-.1,0-.19,.03-.27,.07-.08,.05-.12,.09-.12,.14,0,.05,.02,.1,.07,.15,0,0,.02,.02,.04,.04,.04,.05,.07,.09,.08,.12,.01,.03,0,.05-.03,.07-.07,.04-.15,.03-.24-.02-.05-.03-.1-.07-.14-.11-.02-.02-.03-.04-.04-.07,0,0,0-.01-.02-.02-.03-.01-.07-.02-.1,0l-.11,.06s-.02,.02-.01,.03c.04,.06,.1,.11,.19,.17l-.09,.05s-.02,.03,0,.04l.1,.06s.05,.01,.07,0l.1-.06c.1,.04,.2,.06,.3,.05,.1,0,.19-.03,.27-.08,.06-.03,.09-.07,.1-.1,.01-.03,0-.07,0-.1-.02-.04-.05-.08-.09-.12-.04-.04-.06-.07-.07-.09-.01-.02-.02-.04-.02-.05,0-.02,.01-.03,.04-.05,.03-.02,.07-.03,.11-.02,.04,0,.09,.02,.13,.04,.05,.03,.09,.06,.11,.1,.01,.02,.02,.03,.03,.05,0,0,0,.01,.02,.02,.03,.01,.07,.02,.1,0l.11-.06s.02-.02,.01-.03c-.02-.02-.03-.04-.05-.06-.02-.02-.05-.05-.09-.07l.07-.04s.02-.03,0-.04"/>
        </g>
        <g>
          <g>
            <path class="cls-3" d="M5.42,2.21h0s0,0,0,0Z"/>
            <path class="cls-3" d="M5.36,1.98c-.06-.12-.18-.23-.34-.33-.18-.11-.4-.17-.63-.21l-.08-.04h-.49l-.08,.04c-.24,.03-.46,.1-.64,.21-.16,.1-.28,.21-.34,.33l-.06,.03v.31c0,.2,.14,.4,.4,.55,.53,.31,1.39,.31,1.92,0,.26-.15,.39-.35,.39-.55v-.31l-.06-.03Z"/>
          </g>
          <g>
            <path class="cls-1" d="M5.02,1.45c-.53-.31-1.39-.31-1.92,0-.53,.31-.53,.81,0,1.11,.53,.31,1.39,.31,1.92,0,.53-.31,.53-.81,0-1.11"/>
            <path class="cls-3" d="M4.06,1.31c-.35,0-.67,.08-.91,.22-.23,.13-.35,.3-.35,.48,0,.18,.13,.35,.36,.48,.24,.14,.57,.22,.92,.22h0c.35,0,.67-.08,.91-.22,.23-.13,.35-.3,.35-.48,0-.18-.13-.35-.36-.48-.24-.14-.57-.22-.92-.22Z"/>
            <path class="cls-1" d="M4.11,1.37c-.35,0-.67,.08-.91,.22-.23,.13-.35,.3-.35,.48,0,.18,.13,.35,.36,.48,.24,.14,.57,.22,.92,.22h0c.35,0,.67-.08,.91-.22,.23-.13,.35-.3,.35-.48,0-.18-.13-.35-.36-.48-.24-.14-.57-.22-.92-.22Z"/>
          </g>
          <path class="cls-3" d="M4.78,1.63l-.1-.06s-.05-.01-.07,0l-.08,.05c-.11-.04-.21-.06-.32-.06-.1,0-.19,.03-.27,.07-.08,.05-.12,.09-.12,.14,0,.05,.02,.1,.07,.15,0,0,.02,.02,.04,.04,.04,.05,.07,.09,.08,.12,.01,.03,0,.05-.03,.07-.07,.04-.15,.03-.24-.02-.05-.03-.1-.07-.14-.11-.02-.02-.03-.04-.04-.07,0,0,0-.01-.02-.02-.03-.01-.07-.02-.1,0l-.11,.06s-.02,.02-.01,.03c.04,.06,.1,.11,.19,.17l-.09,.05s-.02,.03,0,.04l.1,.06s.05,.01,.07,0l.1-.06c.1,.04,.2,.06,.3,.05,.1,0,.19-.03,.27-.08,.06-.03,.09-.07,.1-.1,.01-.03,0-.07,0-.1-.02-.04-.05-.08-.09-.12-.04-.04-.06-.07-.07-.09-.01-.02-.02-.04-.02-.05,0-.02,.01-.03,.04-.05,.03-.02,.07-.03,.11-.02,.04,0,.09,.02,.13,.04,.05,.03,.09,.06,.11,.1,.01,.02,.02,.03,.03,.05,0,0,0,.01,.02,.02,.03,.01,.07,.02,.1,0l.11-.06s.02-.02,.01-.03c-.02-.02-.03-.04-.05-.06-.02-.02-.05-.05-.09-.07l.07-.04s.02-.03,0-.04"/>
        </g>
        <g>
          <g>
            <path class="cls-3" d="M5.31,1.78h0s0,0,0,0Z"/>
            <path class="cls-3" d="M5.25,1.56c-.06-.12-.18-.23-.34-.33-.18-.11-.4-.17-.63-.21l-.08-.04h-.49l-.08,.04c-.24,.03-.46,.1-.64,.21-.16,.1-.28,.21-.34,.33l-.06,.03v.31c0,.2,.14,.4,.4,.55,.53,.31,1.39,.31,1.92,0,.26-.15,.39-.35,.39-.55v-.31l-.06-.03Z"/>
          </g>
          <g>
            <path class="cls-1" d="M4.91,1.02c-.53-.31-1.39-.31-1.92,0-.53,.31-.53,.81,0,1.11,.53,.31,1.39,.31,1.92,0,.53-.31,.53-.81,0-1.11"/>
            <path class="cls-3" d="M3.94,.88c-.35,0-.67,.08-.91,.22-.23,.13-.35,.3-.35,.48,0,.18,.13,.35,.36,.48,.24,.14,.57,.22,.92,.22h0c.35,0,.67-.08,.91-.22,.23-.13,.35-.3,.35-.48,0-.18-.13-.35-.36-.48-.24-.14-.57-.22-.92-.22Z"/>
            <path class="cls-1" d="M3.99,.94c-.35,0-.67,.08-.91,.22-.23,.13-.35,.3-.35,.48,0,.18,.13,.35,.36,.48,.24,.14,.57,.22,.92,.22h0c.35,0,.67-.08,.91-.22,.23-.13,.35-.3,.35-.48,0-.18-.13-.35-.36-.48-.24-.14-.57-.22-.92-.22Z"/>
          </g>
          <path class="cls-3" d="M4.66,1.2l-.1-.06s-.05-.01-.07,0l-.08,.05c-.11-.04-.21-.06-.32-.06-.1,0-.19,.03-.27,.07-.08,.05-.12,.09-.12,.14,0,.05,.02,.1,.07,.15,0,0,.02,.02,.04,.04,.04,.05,.07,.09,.08,.12,.01,.03,0,.05-.03,.07-.07,.04-.15,.03-.24-.02-.05-.03-.1-.07-.14-.11-.02-.02-.03-.04-.04-.07,0,0,0-.01-.02-.02-.03-.01-.07-.02-.1,0l-.11,.06s-.02,.02-.01,.03c.04,.06,.1,.11,.19,.17l-.09,.05s-.02,.03,0,.04l.1,.06s.05,.01,.07,0l.1-.06c.1,.04,.2,.06,.3,.05,.1,0,.19-.03,.27-.08,.06-.03,.09-.07,.1-.1,.01-.03,0-.07,0-.1-.02-.04-.05-.08-.09-.12-.04-.04-.06-.07-.07-.09-.01-.02-.02-.04-.02-.05,0-.02,.01-.03,.04-.05,.03-.02,.07-.03,.11-.02,.04,0,.09,.02,.13,.04,.05,.03,.09,.06,.11,.1,.01,.02,.02,.03,.03,.05,0,0,0,.01,.02,.02,.03,.01,.07,.02,.1,0l.11-.06s.02-.02,.01-.03c-.02-.02-.03-.04-.05-.06-.02-.02-.05-.05-.09-.07l.07-.04s.02-.03,0-.04"/>
        </g>
        <g>
          <g>
            <path class="cls-3" d="M5.38,1.39h0s0,0,0,0Z"/>
            <path class="cls-3" d="M5.32,1.17c-.06-.12-.18-.23-.34-.33-.18-.1-.4-.17-.63-.21l-.08-.04h-.49l-.08,.04c-.24,.03-.46,.1-.64,.21-.16,.1-.28,.21-.34,.33l-.06,.03v.31c0,.2,.14,.4,.4,.55,.53,.31,1.39,.31,1.92,0,.26-.15,.39-.35,.39-.55v-.31l-.06-.03Z"/>
          </g>
          <g>
            <path class="cls-1" d="M4.98,.64c-.53-.31-1.39-.31-1.92,0-.53,.31-.53,.81,0,1.11,.53,.31,1.39,.31,1.92,0,.53-.31,.53-.81,0-1.11"/>
            <path class="cls-3" d="M4.01,.5c-.35,0-.67,.08-.91,.22-.23,.13-.35,.3-.35,.48,0,.18,.13,.35,.36,.48,.24,.14,.57,.22,.92,.22h0c.35,0,.67-.08,.91-.22,.23-.13,.35-.3,.35-.48,0-.18-.13-.35-.36-.48-.24-.14-.57-.22-.92-.22Z"/>
            <path class="cls-1" d="M4.07,.56c-.35,0-.67,.08-.91,.22-.23,.13-.35,.3-.35,.48,0,.18,.13,.35,.36,.48,.24,.14,.57,.22,.92,.22h0c.35,0,.67-.08,.91-.22,.23-.13,.35-.3,.35-.48,0-.18-.13-.35-.36-.48-.24-.14-.57-.22-.92-.22Z"/>
          </g>
          <path class="cls-3" d="M4.74,.81l-.1-.06s-.05-.01-.07,0l-.08,.05c-.11-.04-.21-.06-.32-.06-.1,0-.19,.03-.27,.07-.08,.05-.12,.09-.12,.14,0,.05,.02,.1,.07,.15,0,0,.02,.02,.04,.04,.04,.05,.07,.09,.08,.12,.01,.03,0,.05-.03,.07-.07,.04-.15,.03-.24-.02-.05-.03-.1-.07-.14-.11-.02-.02-.03-.04-.04-.07,0,0,0-.01-.02-.02-.03-.01-.07-.02-.1,0l-.11,.06s-.02,.02-.01,.03c.04,.06,.1,.11,.19,.17l-.09,.05s-.02,.03,0,.04l.1,.06s.05,.01,.07,0l.1-.06c.1,.04,.2,.06,.3,.05,.1,0,.19-.03,.27-.08,.06-.03,.09-.07,.1-.1,.01-.03,0-.07,0-.1-.02-.04-.05-.08-.09-.12-.04-.04-.06-.07-.07-.09-.01-.02-.02-.04-.02-.05,0-.02,.01-.03,.04-.05,.03-.02,.07-.03,.11-.02,.04,0,.09,.02,.13,.04,.05,.03,.09,.06,.11,.1,.01,.02,.02,.03,.03,.05,0,0,0,.01,.02,.02,.03,.01,.07,.02,.1,0l.11-.06s.02-.02,.01-.03c-.02-.02-.03-.04-.05-.06-.02-.02-.05-.05-.09-.07l.07-.04s.02-.03,0-.04"/>
        </g>
        <g>
          <g>
            <path class="cls-3" d="M5.51,.99h0s0,0,0,0Z"/>
            <path class="cls-3" d="M5.45,.76c-.06-.12-.18-.23-.34-.33-.18-.11-.4-.17-.63-.21l-.08-.04h-.49l-.08,.04c-.24,.03-.46,.1-.64,.21-.16,.1-.28,.21-.34,.33l-.06,.03v.31c0,.2,.14,.4,.4,.55,.53,.31,1.39,.31,1.92,0,.26-.15,.39-.35,.39-.55v-.31l-.06-.03Z"/>
          </g>
          <g>
            <path class="cls-1" d="M5.11,.23C4.57-.08,3.71-.08,3.18,.23c-.53,.31-.53,.81,0,1.11,.53,.31,1.39,.31,1.92,0,.53-.31,.53-.81,0-1.11"/>
            <path class="cls-3" d="M4.14,.09c-.35,0-.67,.08-.91,.22-.23,.13-.35,.3-.35,.48,0,.18,.13,.35,.36,.48,.24,.14,.57,.22,.92,.22h0c.35,0,.67-.08,.91-.22,.23-.13,.35-.3,.35-.48,0-.18-.13-.35-.36-.48-.24-.14-.57-.22-.92-.22Z"/>
            <path class="cls-1" d="M4.19,.15c-.35,0-.67,.08-.91,.22-.23,.13-.35,.3-.35,.48,0,.18,.13,.35,.36,.48,.24,.14,.57,.22,.92,.22h0c.35,0,.67-.08,.91-.22,.23-.13,.35-.3,.35-.48,0-.18-.13-.35-.36-.48-.24-.14-.57-.22-.92-.22Z"/>
          </g>
          <path class="cls-3" d="M4.86,.41l-.1-.06s-.05-.01-.07,0l-.08,.05c-.11-.04-.21-.06-.32-.06-.1,0-.19,.03-.27,.07-.08,.05-.12,.09-.12,.14,0,.05,.02,.1,.07,.15,0,0,.02,.02,.04,.04,.04,.05,.07,.09,.08,.12,.01,.03,0,.05-.03,.07-.07,.04-.15,.03-.24-.02-.05-.03-.1-.07-.14-.11-.02-.02-.03-.04-.04-.07,0,0,0-.01-.02-.02-.03-.01-.07-.02-.1,0l-.11,.06s-.02,.02-.01,.03c.04,.06,.1,.11,.19,.17l-.09,.05s-.02,.03,0,.04l.1,.06s.05,.01,.07,0l.1-.06c.1,.04,.2,.06,.3,.05,.1,0,.19-.03,.27-.08,.06-.03,.09-.07,.1-.1,.01-.03,0-.07,0-.1-.02-.04-.05-.08-.09-.12-.04-.04-.06-.07-.07-.09-.01-.02-.02-.04-.02-.05,0-.02,.01-.03,.04-.05,.03-.02,.07-.03,.11-.02,.04,0,.09,.02,.13,.04,.05,.03,.09,.06,.11,.1,.01,.02,.02,.03,.03,.05,0,0,0,.01,.02,.02,.03,.01,.07,.02,.1,0l.11-.06s.02-.02,.01-.03c-.02-.02-.03-.04-.05-.06-.02-.02-.05-.05-.09-.07l.07-.04s.02-.03,0-.04"/>
        </g>
      </g>
      <g>
        <g>
          <path class="cls-3" d="M6.38,3.57h0s0,0,0,0Z"/>
          <path class="cls-3" d="M6.32,3.35c-.06-.12-.18-.23-.34-.33-.18-.11-.4-.17-.63-.21l-.08-.04h-.49l-.08,.04c-.24,.03-.46,.1-.64,.21-.16,.1-.28,.21-.34,.33l-.06,.03v.31c0,.2,.14,.4,.4,.55,.53,.31,1.39,.31,1.92,0,.26-.15,.39-.35,.39-.55v-.31l-.06-.03Z"/>
        </g>
        <g>
          <path class="cls-1" d="M5.98,2.82c-.53-.31-1.39-.31-1.92,0-.53,.31-.53,.81,0,1.11,.53,.31,1.39,.31,1.92,0,.53-.31,.53-.81,0-1.11"/>
          <path class="cls-3" d="M5.02,2.68c-.35,0-.67,.08-.91,.22-.23,.13-.35,.3-.35,.48,0,.18,.13,.35,.36,.48,.24,.14,.57,.22,.92,.22h0c.35,0,.67-.08,.91-.22,.23-.13,.35-.3,.35-.48,0-.18-.13-.35-.36-.48-.24-.14-.57-.22-.92-.22Z"/>
          <path class="cls-1" d="M5.07,2.74c-.35,0-.67,.08-.91,.22-.23,.13-.35,.3-.35,.48,0,.18,.13,.35,.36,.48,.24,.14,.57,.22,.92,.22h0c.35,0,.67-.08,.91-.22,.23-.13,.35-.3,.35-.48,0-.18-.13-.35-.36-.48-.24-.14-.57-.22-.92-.22Z"/>
        </g>
        <path class="cls-3" d="M5.74,2.99l-.1-.06s-.05-.01-.07,0l-.08,.05c-.11-.04-.21-.06-.32-.06-.1,0-.19,.03-.27,.07-.08,.05-.12,.09-.12,.14,0,.05,.02,.1,.07,.15,0,0,.02,.02,.04,.04,.04,.05,.07,.09,.08,.12,.01,.03,0,.05-.03,.07-.07,.04-.15,.03-.24-.02-.05-.03-.1-.07-.14-.11-.02-.02-.03-.04-.04-.07,0,0,0-.01-.02-.02-.03-.01-.07-.02-.1,0l-.11,.06s-.02,.02-.01,.03c.04,.06,.1,.11,.19,.17l-.09,.05s-.02,.03,0,.04l.1,.06s.05,.01,.07,0l.1-.06c.1,.04,.2,.06,.3,.05,.1,0,.19-.03,.27-.08,.06-.03,.09-.07,.1-.1,.01-.03,0-.07,0-.1-.02-.04-.05-.08-.09-.12-.04-.04-.06-.07-.07-.09-.01-.02-.02-.04-.02-.05,0-.02,.01-.03,.04-.05,.03-.02,.07-.03,.11-.02,.04,0,.09,.02,.13,.04,.05,.03,.09,.06,.11,.1,.01,.02,.02,.03,.03,.05,0,0,0,.01,.02,.02,.03,.01,.07,.02,.1,0l.11-.06s.02-.02,.01-.03c-.02-.02-.03-.04-.05-.06-.02-.02-.05-.05-.09-.07l.07-.04s.02-.03,0-.04"/>
        <g>
          <g>
            <path class="cls-3" d="M6.5,7.8h0s0,0,0,0Z"/>
            <path class="cls-3" d="M6.44,7.58c-.06-.12-.18-.23-.34-.33-.18-.1-.4-.17-.63-.21l-.08-.04h-.49l-.08,.04c-.24,.03-.46,.1-.64,.21-.16,.1-.28,.21-.34,.33l-.06,.03v.31c0,.2,.14,.4,.4,.55,.53,.31,1.39,.31,1.92,0,.26-.15,.39-.35,.39-.55v-.31l-.06-.03Z"/>
          </g>
          <g>
            <path class="cls-1" d="M6.1,7.05c-.53-.31-1.39-.31-1.92,0-.53,.31-.53,.81,0,1.11,.53,.31,1.39,.31,1.92,0,.53-.31,.53-.81,0-1.11"/>
            <path class="cls-3" d="M5.13,6.91c-.35,0-.67,.08-.91,.22-.23,.13-.35,.3-.35,.48,0,.18,.13,.35,.36,.48,.24,.14,.57,.22,.92,.22h0c.35,0,.67-.08,.91-.22,.23-.13,.35-.3,.35-.48,0-.18-.13-.35-.36-.48-.24-.14-.57-.22-.92-.22Z"/>
            <path class="cls-1" d="M5.18,6.97c-.35,0-.67,.08-.91,.22-.23,.13-.35,.3-.35,.48,0,.18,.13,.35,.36,.48,.24,.14,.57,.22,.92,.22h0c.35,0,.67-.08,.91-.22,.23-.13,.35-.3,.35-.48,0-.18-.13-.35-.36-.48-.24-.14-.57-.22-.92-.22Z"/>
          </g>
          <path class="cls-3" d="M5.85,7.22l-.1-.06s-.05-.01-.07,0l-.08,.05c-.11-.04-.21-.06-.32-.06-.1,0-.19,.03-.27,.07-.08,.05-.12,.09-.12,.14,0,.05,.02,.1,.07,.15,0,0,.02,.02,.04,.04,.04,.05,.07,.09,.08,.12,.01,.03,0,.05-.03,.07-.07,.04-.15,.03-.24-.02-.05-.03-.1-.07-.14-.11-.02-.02-.03-.04-.04-.07,0,0,0-.01-.02-.02-.03-.01-.07-.02-.1,0l-.11,.06s-.02,.02-.01,.03c.04,.06,.1,.11,.19,.17l-.09,.05s-.02,.03,0,.04l.1,.06s.05,.01,.07,0l.1-.06c.1,.04,.2,.06,.3,.05,.1,0,.19-.03,.27-.08,.06-.03,.09-.07,.1-.1,.01-.03,0-.07,0-.1-.02-.04-.05-.08-.09-.12-.04-.04-.06-.07-.07-.09-.01-.02-.02-.04-.02-.05,0-.02,.01-.03,.04-.05,.03-.02,.07-.03,.11-.02,.04,0,.09,.02,.13,.04,.05,.03,.09,.06,.11,.1,.01,.02,.02,.03,.03,.05,0,0,0,.01,.02,.02,.03,.01,.07,.02,.1,0l.11-.06s.02-.02,.01-.03c-.02-.02-.03-.04-.05-.06-.02-.02-.05-.05-.09-.07l.07-.04s.02-.03,0-.04"/>
        </g>
        <g>
          <g>
            <path class="cls-3" d="M6.58,7.35h0s0,0,0,0Z"/>
            <path class="cls-3" d="M6.52,7.13c-.06-.12-.18-.23-.34-.33-.18-.1-.4-.17-.63-.21l-.08-.04h-.49l-.08,.04c-.24,.03-.46,.1-.64,.21-.16,.1-.28,.21-.34,.33l-.06,.03v.31c0,.2,.14,.4,.4,.55,.53,.31,1.39,.31,1.92,0,.26-.15,.39-.35,.39-.55v-.31l-.06-.03Z"/>
          </g>
          <g>
            <path class="cls-1" d="M6.18,6.6c-.53-.31-1.39-.31-1.92,0-.53,.31-.53,.81,0,1.11,.53,.31,1.39,.31,1.92,0,.53-.31,.53-.81,0-1.11"/>
            <path class="cls-3" d="M5.21,6.46c-.35,0-.67,.08-.91,.22-.23,.13-.35,.3-.35,.48,0,.18,.13,.35,.36,.48,.24,.14,.57,.22,.92,.22h0c.35,0,.67-.08,.91-.22,.23-.13,.35-.3,.35-.48,0-.18-.13-.35-.36-.48-.24-.14-.57-.22-.92-.22Z"/>
            <path class="cls-1" d="M5.26,6.52c-.35,0-.67,.08-.91,.22-.23,.13-.35,.3-.35,.48,0,.18,.13,.35,.36,.48,.24,.14,.57,.22,.92,.22h0c.35,0,.67-.08,.91-.22,.23-.13,.35-.3,.35-.48,0-.18-.13-.35-.36-.48-.24-.14-.57-.22-.92-.22Z"/>
          </g>
          <path class="cls-3" d="M5.93,6.77l-.1-.06s-.05-.01-.07,0l-.08,.05c-.11-.04-.21-.06-.32-.06-.1,0-.19,.03-.27,.07-.08,.05-.12,.09-.12,.14,0,.05,.02,.1,.07,.15,0,0,.02,.02,.04,.04,.04,.05,.07,.09,.08,.12,.01,.03,0,.05-.03,.07-.07,.04-.15,.03-.24-.02-.05-.03-.1-.07-.14-.11-.02-.02-.03-.04-.04-.07,0,0,0-.01-.02-.02-.03-.01-.07-.02-.1,0l-.11,.06s-.02,.02-.01,.03c.04,.06,.1,.11,.19,.17l-.09,.05s-.02,.03,0,.04l.1,.06s.05,.01,.07,0l.1-.06c.1,.04,.2,.06,.3,.05,.1,0,.19-.03,.27-.08,.06-.03,.09-.07,.1-.1,.01-.03,0-.07,0-.1-.02-.04-.05-.08-.09-.12-.04-.04-.06-.07-.07-.09-.01-.02-.02-.04-.02-.05,0-.02,.01-.03,.04-.05,.03-.02,.07-.03,.11-.02,.04,0,.09,.02,.13,.04,.05,.03,.09,.06,.11,.1,.01,.02,.02,.03,.03,.05,0,0,0,.01,.02,.02,.03,.01,.07,.02,.1,0l.11-.06s.02-.02,.01-.03c-.02-.02-.03-.04-.05-.06-.02-.02-.05-.05-.09-.07l.07-.04s.02-.03,0-.04"/>
        </g>
        <g>
          <g>
            <path class="cls-3" d="M6.54,6.95h0s0,0,0,0Z"/>
            <path class="cls-3" d="M6.48,6.72c-.06-.12-.18-.23-.34-.33-.18-.1-.4-.17-.63-.21l-.08-.04h-.49l-.08,.04c-.24,.03-.46,.1-.64,.21-.16,.1-.28,.21-.34,.33l-.06,.03v.31c0,.2,.14,.4,.4,.55,.53,.31,1.39,.31,1.92,0,.26-.15,.39-.35,.39-.55v-.31l-.06-.03Z"/>
          </g>
          <g>
            <path class="cls-1" d="M6.13,6.19c-.53-.31-1.39-.31-1.92,0-.53,.31-.53,.81,0,1.11,.53,.31,1.39,.31,1.92,0,.53-.31,.53-.81,0-1.11"/>
            <path class="cls-3" d="M5.17,6.05c-.35,0-.67,.08-.91,.22-.23,.13-.35,.3-.35,.48,0,.18,.13,.35,.36,.48,.24,.14,.57,.22,.92,.22h0c.35,0,.67-.08,.91-.22,.23-.13,.35-.3,.35-.48,0-.18-.13-.35-.36-.48-.24-.14-.57-.22-.92-.22Z"/>
            <path class="cls-1" d="M5.22,6.11c-.35,0-.67,.08-.91,.22-.23,.13-.35,.3-.35,.48,0,.18,.13,.35,.36,.48,.24,.14,.57,.22,.92,.22h0c.35,0,.67-.08,.91-.22,.23-.13,.35-.3,.35-.48,0-.18-.13-.35-.36-.48-.24-.14-.57-.22-.92-.22Z"/>
          </g>
          <path class="cls-3" d="M5.89,6.37l-.1-.06s-.05-.01-.07,0l-.08,.05c-.11-.04-.21-.06-.32-.06-.1,0-.19,.03-.27,.07-.08,.05-.12,.09-.12,.14,0,.05,.02,.1,.07,.15,0,0,.02,.02,.04,.04,.04,.05,.07,.09,.08,.12,.01,.03,0,.05-.03,.07-.07,.04-.15,.03-.24-.02-.05-.03-.1-.07-.14-.11-.02-.02-.03-.04-.04-.07,0,0,0-.01-.02-.02-.03-.01-.07-.02-.1,0l-.11,.06s-.02,.02-.01,.03c.04,.06,.1,.11,.19,.17l-.09,.05s-.02,.03,0,.04l.1,.06s.05,.01,.07,0l.1-.06c.1,.04,.2,.06,.3,.05,.1,0,.19-.03,.27-.08,.06-.03,.09-.07,.1-.1,.01-.03,0-.07,0-.1-.02-.04-.05-.08-.09-.12-.04-.04-.06-.07-.07-.09-.01-.02-.02-.04-.02-.05,0-.02,.01-.03,.04-.05,.03-.02,.07-.03,.11-.02,.04,0,.09,.02,.13,.04,.05,.03,.09,.06,.11,.1,.01,.02,.02,.03,.03,.05,0,0,0,.01,.02,.02,.03,.01,.07,.02,.1,0l.11-.06s.02-.02,.01-.03c-.02-.02-.03-.04-.05-.06-.02-.02-.05-.05-.09-.07l.07-.04s.02-.03,0-.04"/>
        </g>
        <g>
          <g>
            <path class="cls-3" d="M6.54,6.4h0s0,0,0,0Z"/>
            <path class="cls-3" d="M6.48,6.17c-.06-.12-.18-.23-.34-.33-.18-.1-.4-.17-.63-.21l-.08-.04h-.49l-.08,.04c-.24,.03-.46,.1-.64,.21-.16,.1-.28,.21-.34,.33l-.06,.03v.31c0,.2,.14,.4,.4,.55,.53,.31,1.39,.31,1.92,0,.26-.15,.39-.35,.39-.55v-.31l-.06-.03Z"/>
          </g>
          <g>
            <path class="cls-1" d="M6.13,5.64c-.53-.31-1.39-.31-1.92,0-.53,.31-.53,.81,0,1.11,.53,.31,1.39,.31,1.92,0,.53-.31,.53-.81,0-1.11"/>
            <path class="cls-3" d="M5.17,5.5c-.35,0-.67,.08-.91,.22-.23,.13-.35,.3-.35,.48,0,.18,.13,.35,.36,.48,.24,.14,.57,.22,.92,.22h0c.35,0,.67-.08,.91-.22,.23-.13,.35-.3,.35-.48,0-.18-.13-.35-.36-.48-.24-.14-.57-.22-.92-.22Z"/>
            <path class="cls-1" d="M5.22,5.56c-.35,0-.67,.08-.91,.22-.23,.13-.35,.3-.35,.48,0,.18,.13,.35,.36,.48,.24,.14,.57,.22,.92,.22h0c.35,0,.67-.08,.91-.22,.23-.13,.35-.3,.35-.48,0-.18-.13-.35-.36-.48-.24-.14-.57-.22-.92-.22Z"/>
          </g>
          <path class="cls-3" d="M5.89,5.82l-.1-.06s-.05-.01-.07,0l-.08,.05c-.11-.04-.21-.06-.32-.06-.1,0-.19,.03-.27,.07-.08,.05-.12,.09-.12,.14,0,.05,.02,.1,.07,.15,0,0,.02,.02,.04,.04,.04,.05,.07,.09,.08,.12,.01,.03,0,.05-.03,.07-.07,.04-.15,.03-.24-.02-.05-.03-.1-.07-.14-.11-.02-.02-.03-.04-.04-.07,0,0,0-.01-.02-.02-.03-.01-.07-.02-.1,0l-.11,.06s-.02,.02-.01,.03c.04,.06,.1,.11,.19,.17l-.09,.05s-.02,.03,0,.04l.1,.06s.05,.01,.07,0l.1-.06c.1,.04,.2,.06,.3,.05,.1,0,.19-.03,.27-.08,.06-.03,.09-.07,.1-.1,.01-.03,0-.07,0-.1-.02-.04-.05-.08-.09-.12-.04-.04-.06-.07-.07-.09-.01-.02-.02-.04-.02-.05,0-.02,.01-.03,.04-.05,.03-.02,.07-.03,.11-.02,.04,0,.09,.02,.13,.04,.05,.03,.09,.06,.11,.1,.01,.02,.02,.03,.03,.05,0,0,0,.01,.02,.02,.03,.01,.07,.02,.1,0l.11-.06s.02-.02,.01-.03c-.02-.02-.03-.04-.05-.06-.02-.02-.05-.05-.09-.07l.07-.04s.02-.03,0-.04"/>
        </g>
        <g>
          <g>
            <path class="cls-3" d="M6.42,5.97h0s0,0,0,0Z"/>
            <path class="cls-3" d="M6.36,5.74c-.06-.12-.18-.23-.34-.33-.18-.11-.4-.17-.63-.21l-.08-.04h-.49l-.08,.04c-.24,.03-.46,.1-.64,.21-.16,.1-.28,.21-.34,.33l-.06,.03v.31c0,.2,.14,.4,.4,.55,.53,.31,1.39,.31,1.92,0,.26-.15,.39-.35,.39-.55v-.31l-.06-.03Z"/>
          </g>
          <g>
            <path class="cls-1" d="M6.02,5.21c-.53-.31-1.39-.31-1.92,0-.53,.31-.53,.81,0,1.11,.53,.31,1.39,.31,1.92,0,.53-.31,.53-.81,0-1.11"/>
            <path class="cls-3" d="M5.06,5.07c-.35,0-.67,.08-.91,.22-.23,.13-.35,.3-.35,.48,0,.18,.13,.35,.36,.48,.24,.14,.57,.22,.92,.22h0c.35,0,.67-.08,.91-.22,.23-.13,.35-.3,.35-.48,0-.18-.13-.35-.36-.48-.24-.14-.57-.22-.92-.22Z"/>
            <path class="cls-1" d="M5.11,5.13c-.35,0-.67,.08-.91,.22-.23,.13-.35,.3-.35,.48,0,.18,.13,.35,.36,.48,.24,.14,.57,.22,.92,.22h0c.35,0,.67-.08,.91-.22,.23-.13,.35-.3,.35-.48,0-.18-.13-.35-.36-.48-.24-.14-.57-.22-.92-.22Z"/>
          </g>
          <path class="cls-3" d="M5.78,5.39l-.1-.06s-.05-.01-.07,0l-.08,.05c-.11-.04-.21-.06-.32-.06-.1,0-.19,.03-.27,.07-.08,.05-.12,.09-.12,.14,0,.05,.02,.1,.07,.15,0,0,.02,.02,.04,.04,.04,.05,.07,.09,.08,.12,.01,.03,0,.05-.03,.07-.07,.04-.15,.03-.24-.02-.05-.03-.1-.07-.14-.11-.02-.02-.03-.04-.04-.07,0,0,0-.01-.02-.02-.03-.01-.07-.02-.1,0l-.11,.06s-.02,.02-.01,.03c.04,.06,.1,.11,.19,.17l-.09,.05s-.02,.03,0,.04l.1,.06s.05,.01,.07,0l.1-.06c.1,.04,.2,.06,.3,.05,.1,0,.19-.03,.27-.08,.06-.03,.09-.07,.1-.1,.01-.03,0-.07,0-.1-.02-.04-.05-.08-.09-.12-.04-.04-.06-.07-.07-.09-.01-.02-.02-.04-.02-.05,0-.02,.01-.03,.04-.05,.03-.02,.07-.03,.11-.02,.04,0,.09,.02,.13,.04,.05,.03,.09,.06,.11,.1,.01,.02,.02,.03,.03,.05,0,0,0,.01,.02,.02,.03,.01,.07,.02,.1,0l.11-.06s.02-.02,.01-.03c-.02-.02-.03-.04-.05-.06-.02-.02-.05-.05-.09-.07l.07-.04s.02-.03,0-.04"/>
        </g>
        <g>
          <g>
            <path class="cls-3" d="M6.49,5.58h0s0,0,0,0Z"/>
            <path class="cls-3" d="M6.43,5.36c-.06-.12-.18-.23-.34-.33-.18-.11-.4-.17-.63-.21l-.08-.04h-.49l-.08,.04c-.24,.03-.46,.1-.64,.21-.16,.1-.28,.21-.34,.33l-.06,.03v.31c0,.2,.14,.4,.4,.55,.53,.31,1.39,.31,1.92,0,.26-.15,.39-.35,.39-.55v-.31l-.06-.03Z"/>
          </g>
          <g>
            <path class="cls-1" d="M6.09,4.82c-.53-.31-1.39-.31-1.92,0-.53,.31-.53,.81,0,1.11,.53,.31,1.39,.31,1.92,0,.53-.31,.53-.81,0-1.11"/>
            <path class="cls-3" d="M5.13,4.69c-.35,0-.67,.08-.91,.22-.23,.13-.35,.3-.35,.48,0,.18,.13,.35,.36,.48,.24,.14,.57,.22,.92,.22h0c.35,0,.67-.08,.91-.22,.23-.13,.35-.3,.35-.48,0-.18-.13-.35-.36-.48-.24-.14-.57-.22-.92-.22Z"/>
            <path class="cls-1" d="M5.18,4.75c-.35,0-.67,.08-.91,.22-.23,.13-.35,.3-.35,.48,0,.18,.13,.35,.36,.48,.24,.14,.57,.22,.92,.22h0c.35,0,.67-.08,.91-.22,.23-.13,.35-.3,.35-.48,0-.18-.13-.35-.36-.48-.24-.14-.57-.22-.92-.22Z"/>
          </g>
          <path class="cls-3" d="M5.85,5l-.1-.06s-.05-.01-.07,0l-.08,.05c-.11-.04-.21-.06-.32-.06-.1,0-.19,.03-.27,.07-.08,.05-.12,.09-.12,.14,0,.05,.02,.1,.07,.15,0,0,.02,.02,.04,.04,.04,.05,.07,.09,.08,.12,.01,.03,0,.05-.03,.07-.07,.04-.15,.03-.24-.02-.05-.03-.1-.07-.14-.11-.02-.02-.03-.04-.04-.07,0,0,0-.01-.02-.02-.03-.01-.07-.02-.1,0l-.11,.06s-.02,.02-.01,.03c.04,.06,.1,.11,.19,.17l-.09,.05s-.02,.03,0,.04l.1,.06s.05,.01,.07,0l.1-.06c.1,.04,.2,.06,.3,.05,.1,0,.19-.03,.27-.08,.06-.03,.09-.07,.1-.1,.01-.03,0-.07,0-.1-.02-.04-.05-.08-.09-.12-.04-.04-.06-.07-.07-.09-.01-.02-.02-.04-.02-.05,0-.02,.01-.03,.04-.05,.03-.02,.07-.03,.11-.02,.04,0,.09,.02,.13,.04,.05,.03,.09,.06,.11,.1,.01,.02,.02,.03,.03,.05,0,0,0,.01,.02,.02,.03,.01,.07,.02,.1,0l.11-.06s.02-.02,.01-.03c-.02-.02-.03-.04-.05-.06-.02-.02-.05-.05-.09-.07l.07-.04s.02-.03,0-.04"/>
        </g>
        <g>
          <g>
            <path class="cls-3" d="M6.45,5.17h0s0,0,0,0Z"/>
            <path class="cls-3" d="M6.39,4.95c-.06-.12-.18-.23-.34-.33-.18-.1-.4-.17-.63-.21l-.08-.04h-.49l-.08,.04c-.24,.03-.46,.1-.64,.21-.16,.1-.28,.21-.34,.33l-.06,.03v.31c0,.2,.14,.4,.4,.55,.53,.31,1.39,.31,1.92,0,.26-.15,.39-.35,.39-.55v-.31l-.06-.03Z"/>
          </g>
          <g>
            <path class="cls-1" d="M6.05,4.42c-.53-.31-1.39-.31-1.92,0-.53,.31-.53,.81,0,1.11,.53,.31,1.39,.31,1.92,0,.53-.31,.53-.81,0-1.11"/>
            <path class="cls-3" d="M5.09,4.28c-.35,0-.67,.08-.91,.22-.23,.13-.35,.3-.35,.48,0,.18,.13,.35,.36,.48,.24,.14,.57,.22,.92,.22h0c.35,0,.67-.08,.91-.22,.23-.13,.35-.3,.35-.48,0-.18-.13-.35-.36-.48-.24-.14-.57-.22-.92-.22Z"/>
            <path class="cls-1" d="M5.14,4.34c-.35,0-.67,.08-.91,.22-.23,.13-.35,.3-.35,.48,0,.18,.13,.35,.36,.48,.24,.14,.57,.22,.92,.22h0c.35,0,.67-.08,.91-.22,.23-.13,.35-.3,.35-.48,0-.18-.13-.35-.36-.48-.24-.14-.57-.22-.92-.22Z"/>
          </g>
          <path class="cls-3" d="M5.81,4.6l-.1-.06s-.05-.01-.07,0l-.08,.05c-.11-.04-.21-.06-.32-.06-.1,0-.19,.03-.27,.07-.08,.05-.12,.09-.12,.14,0,.05,.02,.1,.07,.15,0,0,.02,.02,.04,.04,.04,.05,.07,.09,.08,.12,.01,.03,0,.05-.03,.07-.07,.04-.15,.03-.24-.02-.05-.03-.1-.07-.14-.11-.02-.02-.03-.04-.04-.07,0,0,0-.01-.02-.02-.03-.01-.07-.02-.1,0l-.11,.06s-.02,.02-.01,.03c.04,.06,.1,.11,.19,.17l-.09,.05s-.02,.03,0,.04l.1,.06s.05,.01,.07,0l.1-.06c.1,.04,.2,.06,.3,.05,.1,0,.19-.03,.27-.08,.06-.03,.09-.07,.1-.1,.01-.03,0-.07,0-.1-.02-.04-.05-.08-.09-.12-.04-.04-.06-.07-.07-.09-.01-.02-.02-.04-.02-.05,0-.02,.01-.03,.04-.05,.03-.02,.07-.03,.11-.02,.04,0,.09,.02,.13,.04,.05,.03,.09,.06,.11,.1,.01,.02,.02,.03,.03,.05,0,0,0,.01,.02,.02,.03,.01,.07,.02,.1,0l.11-.06s.02-.02,.01-.03c-.02-.02-.03-.04-.05-.06-.02-.02-.05-.05-.09-.07l.07-.04s.02-.03,0-.04"/>
        </g>
        <g>
          <g>
            <path class="cls-3" d="M6.39,4.77h0s0,0,0,0Z"/>
            <path class="cls-3" d="M6.33,4.55c-.06-.12-.18-.23-.34-.33-.18-.1-.4-.17-.63-.21l-.08-.04h-.49l-.08,.04c-.24,.03-.46,.1-.64,.21-.16,.1-.28,.21-.34,.33l-.06,.03v.31c0,.2,.14,.4,.4,.55,.53,.31,1.39,.31,1.92,0,.26-.15,.39-.35,.39-.55v-.31l-.06-.03Z"/>
          </g>
          <g>
            <path class="cls-1" d="M5.99,4.01c-.53-.31-1.39-.31-1.92,0-.53,.31-.53,.81,0,1.11,.53,.31,1.39,.31,1.92,0,.53-.31,.53-.81,0-1.11"/>
            <path class="cls-3" d="M5.02,3.88c-.35,0-.67,.08-.91,.22-.23,.13-.35,.3-.35,.48,0,.18,.13,.35,.36,.48,.24,.14,.57,.22,.92,.22h0c.35,0,.67-.08,.91-.22,.23-.13,.35-.3,.35-.48,0-.18-.13-.35-.36-.48-.24-.14-.57-.22-.92-.22Z"/>
            <path class="cls-1" d="M5.08,3.93c-.35,0-.67,.08-.91,.22-.23,.13-.35,.3-.35,.48,0,.18,.13,.35,.36,.48,.24,.14,.57,.22,.92,.22h0c.35,0,.67-.08,.91-.22,.23-.13,.35-.3,.35-.48,0-.18-.13-.35-.36-.48-.24-.14-.57-.22-.92-.22Z"/>
          </g>
          <path class="cls-3" d="M5.75,4.19l-.1-.06s-.05-.01-.07,0l-.08,.05c-.11-.04-.21-.06-.32-.06-.1,0-.19,.03-.27,.07-.08,.05-.12,.09-.12,.14,0,.05,.02,.1,.07,.15,0,0,.02,.02,.04,.04,.04,.05,.07,.09,.08,.12,.01,.03,0,.05-.03,.07-.07,.04-.15,.03-.24-.02-.05-.03-.1-.07-.14-.11-.02-.02-.03-.04-.04-.07,0,0,0-.01-.02-.02-.03-.01-.07-.02-.1,0l-.11,.06s-.02,.02-.01,.03c.04,.06,.1,.11,.19,.17l-.09,.05s-.02,.03,0,.04l.1,.06s.05,.01,.07,0l.1-.06c.1,.04,.2,.06,.3,.05,.1,0,.19-.03,.27-.08,.06-.03,.09-.07,.1-.1,.01-.03,0-.07,0-.1-.02-.04-.05-.08-.09-.12-.04-.04-.06-.07-.07-.09-.01-.02-.02-.04-.02-.05,0-.02,.01-.03,.04-.05,.03-.02,.07-.03,.11-.02,.04,0,.09,.02,.13,.04,.05,.03,.09,.06,.11,.1,.01,.02,.02,.03,.03,.05,0,0,0,.01,.02,.02,.03,.01,.07,.02,.1,0l.11-.06s.02-.02,.01-.03c-.02-.02-.03-.04-.05-.06-.02-.02-.05-.05-.09-.07l.07-.04s.02-.03,0-.04"/>
        </g>
        <g>
          <g>
            <path class="cls-3" d="M6.56,4.38h0s0,0,0,0Z"/>
            <path class="cls-3" d="M6.5,4.16c-.06-.12-.18-.23-.34-.33-.18-.11-.4-.17-.63-.21l-.08-.04h-.49l-.08,.04c-.24,.03-.46,.1-.64,.21-.16,.1-.28,.21-.34,.33l-.06,.03v.31c0,.2,.14,.4,.4,.55,.53,.31,1.39,.31,1.92,0,.26-.15,.39-.35,.39-.55v-.31l-.06-.03Z"/>
          </g>
          <g>
            <path class="cls-1" d="M6.16,3.63c-.53-.31-1.39-.31-1.92,0-.53,.31-.53,.81,0,1.11,.53,.31,1.39,.31,1.92,0,.53-.31,.53-.81,0-1.11"/>
            <path class="cls-3" d="M5.2,3.49c-.35,0-.67,.08-.91,.22-.23,.13-.35,.3-.35,.48,0,.18,.13,.35,.36,.48,.24,.14,.57,.22,.92,.22h0c.35,0,.67-.08,.91-.22,.23-.13,.35-.3,.35-.48,0-.18-.13-.35-.36-.48-.24-.14-.57-.22-.92-.22Z"/>
            <path class="cls-1" d="M5.25,3.55c-.35,0-.67,.08-.91,.22-.23,.13-.35,.3-.35,.48,0,.18,.13,.35,.36,.48,.24,.14,.57,.22,.92,.22h0c.35,0,.67-.08,.91-.22,.23-.13,.35-.3,.35-.48,0-.18-.13-.35-.36-.48-.24-.14-.57-.22-.92-.22Z"/>
          </g>
          <path class="cls-3" d="M5.92,3.8l-.1-.06s-.05-.01-.07,0l-.08,.05c-.11-.04-.21-.06-.32-.06-.1,0-.19,.03-.27,.07-.08,.05-.12,.09-.12,.14,0,.05,.02,.1,.07,.15,0,0,.02,.02,.04,.04,.04,.05,.07,.09,.08,.12,.01,.03,0,.05-.03,.07-.07,.04-.15,.03-.24-.02-.05-.03-.1-.07-.14-.11-.02-.02-.03-.04-.04-.07,0,0,0-.01-.02-.02-.03-.01-.07-.02-.1,0l-.11,.06s-.02,.02-.01,.03c.04,.06,.1,.11,.19,.17l-.09,.05s-.02,.03,0,.04l.1,.06s.05,.01,.07,0l.1-.06c.1,.04,.2,.06,.3,.05,.1,0,.19-.03,.27-.08,.06-.03,.09-.07,.1-.1,.01-.03,0-.07,0-.1-.02-.04-.05-.08-.09-.12-.04-.04-.06-.07-.07-.09-.01-.02-.02-.04-.02-.05,0-.02,.01-.03,.04-.05,.03-.02,.07-.03,.11-.02,.04,0,.09,.02,.13,.04,.05,.03,.09,.06,.11,.1,.01,.02,.02,.03,.03,.05,0,0,0,.01,.02,.02,.03,.01,.07,.02,.1,0l.11-.06s.02-.02,.01-.03c-.02-.02-.03-.04-.05-.06-.02-.02-.05-.05-.09-.07l.07-.04s.02-.03,0-.04"/>
        </g>
        <g>
          <g>
            <path class="cls-3" d="M6.42,3.98h0s0,0,0,0Z"/>
            <path class="cls-3" d="M6.36,3.75c-.06-.12-.18-.23-.34-.33-.18-.11-.4-.17-.63-.21l-.08-.04h-.49l-.08,.04c-.24,.03-.46,.1-.64,.21-.16,.1-.28,.21-.34,.33l-.06,.03v.31c0,.2,.14,.4,.4,.55,.53,.31,1.39,.31,1.92,0,.26-.15,.39-.35,.39-.55v-.31l-.06-.03Z"/>
          </g>
          <g>
            <path class="cls-1" d="M6.02,3.22c-.53-.31-1.39-.31-1.92,0-.53,.31-.53,.81,0,1.11,.53,.31,1.39,.31,1.92,0,.53-.31,.53-.81,0-1.11"/>
            <path class="cls-3" d="M5.06,3.08c-.35,0-.67,.08-.91,.22-.23,.13-.35,.3-.35,.48,0,.18,.13,.35,.36,.48,.24,.14,.57,.22,.92,.22h0c.35,0,.67-.08,.91-.22,.23-.13,.35-.3,.35-.48,0-.18-.13-.35-.36-.48-.24-.14-.57-.22-.92-.22Z"/>
            <path class="cls-1" d="M5.11,3.14c-.35,0-.67,.08-.91,.22-.23,.13-.35,.3-.35,.48,0,.18,.13,.35,.36,.48,.24,.14,.57,.22,.92,.22h0c.35,0,.67-.08,.91-.22,.23-.13,.35-.3,.35-.48,0-.18-.13-.35-.36-.48-.24-.14-.57-.22-.92-.22Z"/>
          </g>
          <path class="cls-3" d="M5.78,3.4l-.1-.06s-.05-.01-.07,0l-.08,.05c-.11-.04-.21-.06-.32-.06-.1,0-.19,.03-.27,.07-.08,.05-.12,.09-.12,.14,0,.05,.02,.1,.07,.15,0,0,.02,.02,.04,.04,.04,.05,.07,.09,.08,.12,.01,.03,0,.05-.03,.07-.07,.04-.15,.03-.24-.02-.05-.03-.1-.07-.14-.11-.02-.02-.03-.04-.04-.07,0,0,0-.01-.02-.02-.03-.01-.07-.02-.1,0l-.11,.06s-.02,.02-.01,.03c.04,.06,.1,.11,.19,.17l-.09,.05s-.02,.03,0,.04l.1,.06s.05,.01,.07,0l.1-.06c.1,.04,.2,.06,.3,.05,.1,0,.19-.03,.27-.08,.06-.03,.09-.07,.1-.1,.01-.03,0-.07,0-.1-.02-.04-.05-.08-.09-.12-.04-.04-.06-.07-.07-.09-.01-.02-.02-.04-.02-.05,0-.02,.01-.03,.04-.05,.03-.02,.07-.03,.11-.02,.04,0,.09,.02,.13,.04,.05,.03,.09,.06,.11,.1,.01,.02,.02,.03,.03,.05,0,0,0,.01,.02,.02,.03,.01,.07,.02,.1,0l.11-.06s.02-.02,.01-.03c-.02-.02-.03-.04-.05-.06-.02-.02-.05-.05-.09-.07l.07-.04s.02-.03,0-.04"/>
        </g>
      </g>
      <g>
        <g>
          <g>
            <path class="cls-3" d="M3.08,6.64h0s0,0,0,0Z"/>
            <path class="cls-3" d="M3.02,6.41c-.06-.12-.18-.23-.34-.33-.18-.1-.4-.17-.63-.21l-.08-.04h-.49l-.08,.04c-.24,.03-.46,.1-.64,.21-.16,.1-.28,.21-.34,.33l-.06,.03v.31c0,.2,.14,.4,.4,.55,.53,.31,1.39,.31,1.92,0,.26-.15,.39-.35,.39-.55v-.31l-.06-.03Z"/>
          </g>
          <g>
            <path class="cls-1" d="M2.68,5.88c-.53-.31-1.39-.31-1.92,0-.53,.31-.53,.81,0,1.11,.53,.31,1.39,.31,1.92,0,.53-.31,.53-.81,0-1.11"/>
            <path class="cls-3" d="M1.72,5.74c-.35,0-.67,.08-.91,.22-.23,.13-.35,.3-.35,.48,0,.18,.13,.35,.36,.48,.24,.14,.57,.22,.92,.22h0c.35,0,.67-.08,.91-.22,.23-.13,.35-.3,.35-.48,0-.18-.13-.35-.36-.48-.24-.14-.57-.22-.92-.22Z"/>
            <path class="cls-1" d="M1.77,5.8c-.35,0-.67,.08-.91,.22-.23,.13-.35,.3-.35,.48,0,.18,.13,.35,.36,.48,.24,.14,.57,.22,.92,.22h0c.35,0,.67-.08,.91-.22,.23-.13,.35-.3,.35-.48,0-.18-.13-.35-.36-.48-.24-.14-.57-.22-.92-.22Z"/>
          </g>
          <path class="cls-3" d="M2.44,6.06l-.1-.06s-.05-.01-.07,0l-.08,.05c-.11-.04-.21-.06-.32-.06-.1,0-.19,.03-.27,.07-.08,.05-.12,.09-.12,.14,0,.05,.02,.1,.07,.15,0,0,.02,.02,.04,.04,.04,.05,.07,.09,.08,.12,.01,.03,0,.05-.03,.07-.07,.04-.15,.03-.24-.02-.05-.03-.1-.07-.14-.11-.02-.02-.03-.04-.04-.07,0,0,0-.01-.02-.02-.03-.01-.07-.02-.1,0l-.11,.06s-.02,.02-.01,.03c.04,.06,.1,.11,.19,.17l-.09,.05s-.02,.03,0,.04l.1,.06s.05,.01,.07,0l.1-.06c.1,.04,.2,.06,.3,.05,.1,0,.19-.03,.27-.08,.06-.03,.09-.07,.1-.1,.01-.03,0-.07,0-.1-.02-.04-.05-.08-.09-.12-.04-.04-.06-.07-.07-.09-.01-.02-.02-.04-.02-.05,0-.02,.01-.03,.04-.05,.03-.02,.07-.03,.11-.02,.04,0,.09,.02,.13,.04,.05,.03,.09,.06,.11,.1,.01,.02,.02,.03,.03,.05,0,0,0,.01,.02,.02,.03,.01,.07,.02,.1,0l.11-.06s.02-.02,.01-.03c-.02-.02-.03-.04-.05-.06-.02-.02-.05-.05-.09-.07l.07-.04s.02-.03,0-.04"/>
        </g>
        <g>
          <g>
            <path class="cls-3" d="M3.04,6.23h0s0,0,0,0Z"/>
            <path class="cls-3" d="M2.98,6.01c-.06-.12-.18-.23-.34-.33-.18-.1-.4-.17-.63-.21l-.08-.04h-.49l-.08,.04c-.24,.03-.46,.1-.64,.21-.16,.1-.28,.21-.34,.33l-.06,.03v.31c0,.2,.14,.4,.4,.55,.53,.31,1.39,.31,1.92,0,.26-.15,.39-.35,.39-.55v-.31l-.06-.03Z"/>
          </g>
          <g>
            <path class="cls-1" d="M2.64,5.47c-.53-.31-1.39-.31-1.92,0-.53,.31-.53,.81,0,1.11,.53,.31,1.39,.31,1.92,0,.53-.31,.53-.81,0-1.11"/>
            <path class="cls-3" d="M1.67,5.34c-.35,0-.67,.08-.91,.22-.23,.13-.35,.3-.35,.48,0,.18,.13,.35,.36,.48,.24,.14,.57,.22,.92,.22h0c.35,0,.67-.08,.91-.22,.23-.13,.35-.3,.35-.48,0-.18-.13-.35-.36-.48-.24-.14-.57-.22-.92-.22Z"/>
            <path class="cls-1" d="M1.73,5.4c-.35,0-.67,.08-.91,.22-.23,.13-.35,.3-.35,.48,0,.18,.13,.35,.36,.48,.24,.14,.57,.22,.92,.22h0c.35,0,.67-.08,.91-.22,.23-.13,.35-.3,.35-.48,0-.18-.13-.35-.36-.48-.24-.14-.57-.22-.92-.22Z"/>
          </g>
          <path class="cls-3" d="M2.39,5.65l-.1-.06s-.05-.01-.07,0l-.08,.05c-.11-.04-.21-.06-.32-.06-.1,0-.19,.03-.27,.07-.08,.05-.12,.09-.12,.14,0,.05,.02,.1,.07,.15,0,0,.02,.02,.04,.04,.04,.05,.07,.09,.08,.12,.01,.03,0,.05-.03,.07-.07,.04-.15,.03-.24-.02-.05-.03-.1-.07-.14-.11-.02-.02-.03-.04-.04-.07,0,0,0-.01-.02-.02-.03-.01-.07-.02-.1,0l-.11,.06s-.02,.02-.01,.03c.04,.06,.1,.11,.19,.17l-.09,.05s-.02,.03,0,.04l.1,.06s.05,.01,.07,0l.1-.06c.1,.04,.2,.06,.3,.05,.1,0,.19-.03,.27-.08,.06-.03,.09-.07,.1-.1,.01-.03,0-.07,0-.1-.02-.04-.05-.08-.09-.12-.04-.04-.06-.07-.07-.09-.01-.02-.02-.04-.02-.05,0-.02,.01-.03,.04-.05,.03-.02,.07-.03,.11-.02,.04,0,.09,.02,.13,.04,.05,.03,.09,.06,.11,.1,.01,.02,.02,.03,.03,.05,0,0,0,.01,.02,.02,.03,.01,.07,.02,.1,0l.11-.06s.02-.02,.01-.03c-.02-.02-.03-.04-.05-.06-.02-.02-.05-.05-.09-.07l.07-.04s.02-.03,0-.04"/>
        </g>
        <g>
          <g>
            <path class="cls-3" d="M3.11,5.84h0s0,0,0,0Z"/>
            <path class="cls-3" d="M3.05,5.62c-.06-.12-.18-.23-.34-.33-.18-.11-.4-.17-.63-.21l-.08-.04h-.49l-.08,.04c-.24,.03-.46,.1-.64,.21-.16,.1-.28,.21-.34,.33l-.06,.03v.31c0,.2,.14,.4,.4,.55,.53,.31,1.39,.31,1.92,0,.26-.15,.39-.35,.39-.55v-.31l-.06-.03Z"/>
          </g>
          <g>
            <path class="cls-1" d="M2.71,5.09c-.53-.31-1.39-.31-1.92,0-.53,.31-.53,.81,0,1.11,.53,.31,1.39,.31,1.92,0,.53-.31,.53-.81,0-1.11"/>
            <path class="cls-3" d="M1.75,4.95c-.35,0-.67,.08-.91,.22-.23,.13-.35,.3-.35,.48,0,.18,.13,.35,.36,.48,.24,.14,.57,.22,.92,.22h0c.35,0,.67-.08,.91-.22,.23-.13,.35-.3,.35-.48,0-.18-.13-.35-.36-.48-.24-.14-.57-.22-.92-.22Z"/>
            <path class="cls-1" d="M1.8,5.01c-.35,0-.67,.08-.91,.22-.23,.13-.35,.3-.35,.48,0,.18,.13,.35,.36,.48,.24,.14,.57,.22,.92,.22h0c.35,0,.67-.08,.91-.22,.23-.13,.35-.3,.35-.48,0-.18-.13-.35-.36-.48-.24-.14-.57-.22-.92-.22Z"/>
          </g>
          <path class="cls-3" d="M2.47,5.26l-.1-.06s-.05-.01-.07,0l-.08,.05c-.11-.04-.21-.06-.32-.06-.1,0-.19,.03-.27,.07-.08,.05-.12,.09-.12,.14,0,.05,.02,.1,.07,.15,0,0,.02,.02,.04,.04,.04,.05,.07,.09,.08,.12,.01,.03,0,.05-.03,.07-.07,.04-.15,.03-.24-.02-.05-.03-.1-.07-.14-.11-.02-.02-.03-.04-.04-.07,0,0,0-.01-.02-.02-.03-.01-.07-.02-.1,0l-.11,.06s-.02,.02-.01,.03c.04,.06,.1,.11,.19,.17l-.09,.05s-.02,.03,0,.04l.1,.06s.05,.01,.07,0l.1-.06c.1,.04,.2,.06,.3,.05,.1,0,.19-.03,.27-.08,.06-.03,.09-.07,.1-.1,.01-.03,0-.07,0-.1-.02-.04-.05-.08-.09-.12-.04-.04-.06-.07-.07-.09-.01-.02-.02-.04-.02-.05,0-.02,.01-.03,.04-.05,.03-.02,.07-.03,.11-.02,.04,0,.09,.02,.13,.04,.05,.03,.09,.06,.11,.1,.01,.02,.02,.03,.03,.05,0,0,0,.01,.02,.02,.03,.01,.07,.02,.1,0l.11-.06s.02-.02,.01-.03c-.02-.02-.03-.04-.05-.06-.02-.02-.05-.05-.09-.07l.07-.04s.02-.03,0-.04"/>
        </g>
        <g>
          <g>
            <path class="cls-3" d="M3.07,5.44h0s0,0,0,0Z"/>
            <path class="cls-3" d="M3.01,5.21c-.06-.12-.18-.23-.34-.33-.18-.11-.4-.17-.63-.21l-.08-.04h-.49l-.08,.04c-.24,.03-.46,.1-.64,.21-.16,.1-.28,.21-.34,.33l-.06,.03v.31c0,.2,.14,.4,.4,.55,.53,.31,1.39,.31,1.92,0,.26-.15,.39-.35,.39-.55v-.31l-.06-.03Z"/>
          </g>
          <g>
            <path class="cls-1" d="M2.67,4.68c-.53-.31-1.39-.31-1.92,0-.53,.31-.53,.81,0,1.11,.53,.31,1.39,.31,1.92,0,.53-.31,.53-.81,0-1.11"/>
            <path class="cls-3" d="M1.71,4.54c-.35,0-.67,.08-.91,.22-.23,.13-.35,.3-.35,.48,0,.18,.13,.35,.36,.48,.24,.14,.57,.22,.92,.22h0c.35,0,.67-.08,.91-.22,.23-.13,.35-.3,.35-.48,0-.18-.13-.35-.36-.48-.24-.14-.57-.22-.92-.22Z"/>
            <path class="cls-1" d="M1.76,4.6c-.35,0-.67,.08-.91,.22-.23,.13-.35,.3-.35,.48,0,.18,.13,.35,.36,.48,.24,.14,.57,.22,.92,.22h0c.35,0,.67-.08,.91-.22,.23-.13,.35-.3,.35-.48,0-.18-.13-.35-.36-.48-.24-.14-.57-.22-.92-.22Z"/>
          </g>
          <path class="cls-3" d="M2.43,4.86l-.1-.06s-.05-.01-.07,0l-.08,.05c-.11-.04-.21-.06-.32-.06-.1,0-.19,.03-.27,.07-.08,.05-.12,.09-.12,.14,0,.05,.02,.1,.07,.15,0,0,.02,.02,.04,.04,.04,.05,.07,.09,.08,.12,.01,.03,0,.05-.03,.07-.07,.04-.15,.03-.24-.02-.05-.03-.1-.07-.14-.11-.02-.02-.03-.04-.04-.07,0,0,0-.01-.02-.02-.03-.01-.07-.02-.1,0l-.11,.06s-.02,.02-.01,.03c.04,.06,.1,.11,.19,.17l-.09,.05s-.02,.03,0,.04l.1,.06s.05,.01,.07,0l.1-.06c.1,.04,.2,.06,.3,.05,.1,0,.19-.03,.27-.08,.06-.03,.09-.07,.1-.1,.01-.03,0-.07,0-.1-.02-.04-.05-.08-.09-.12-.04-.04-.06-.07-.07-.09-.01-.02-.02-.04-.02-.05,0-.02,.01-.03,.04-.05,.03-.02,.07-.03,.11-.02,.04,0,.09,.02,.13,.04,.05,.03,.09,.06,.11,.1,.01,.02,.02,.03,.03,.05,0,0,0,.01,.02,.02,.03,.01,.07,.02,.1,0l.11-.06s.02-.02,.01-.03c-.02-.02-.03-.04-.05-.06-.02-.02-.05-.05-.09-.07l.07-.04s.02-.03,0-.04"/>
        </g>
        <g>
          <g>
            <path class="cls-3" d="M3.01,5.03h0s0,0,0,0Z"/>
            <path class="cls-3" d="M2.95,4.81c-.06-.12-.18-.23-.34-.33-.18-.11-.4-.17-.63-.21l-.08-.04h-.49l-.08,.04c-.24,.03-.46,.1-.64,.21-.16,.1-.28,.21-.34,.33l-.06,.03v.31c0,.2,.14,.4,.4,.55,.53,.31,1.39,.31,1.92,0,.26-.15,.39-.35,.39-.55v-.31l-.06-.03Z"/>
          </g>
          <g>
            <path class="cls-1" d="M2.61,4.28c-.53-.31-1.39-.31-1.92,0-.53,.31-.53,.81,0,1.11,.53,.31,1.39,.31,1.92,0,.53-.31,.53-.81,0-1.11"/>
            <path class="cls-3" d="M1.64,4.14c-.35,0-.67,.08-.91,.22-.23,.13-.35,.3-.35,.48,0,.18,.13,.35,.36,.48,.24,.14,.57,.22,.92,.22h0c.35,0,.67-.08,.91-.22,.23-.13,.35-.3,.35-.48,0-.18-.13-.35-.36-.48-.24-.14-.57-.22-.92-.22Z"/>
            <path class="cls-1" d="M1.69,4.2c-.35,0-.67,.08-.91,.22-.23,.13-.35,.3-.35,.48,0,.18,.13,.35,.36,.48,.24,.14,.57,.22,.92,.22h0c.35,0,.67-.08,.91-.22,.23-.13,.35-.3,.35-.48,0-.18-.13-.35-.36-.48-.24-.14-.57-.22-.92-.22Z"/>
          </g>
          <path class="cls-3" d="M2.36,4.45l-.1-.06s-.05-.01-.07,0l-.08,.05c-.11-.04-.21-.06-.32-.06-.1,0-.19,.03-.27,.07-.08,.05-.12,.09-.12,.14,0,.05,.02,.1,.07,.15,0,0,.02,.02,.04,.04,.04,.05,.07,.09,.08,.12,.01,.03,0,.05-.03,.07-.07,.04-.15,.03-.24-.02-.05-.03-.1-.07-.14-.11-.02-.02-.03-.04-.04-.07,0,0,0-.01-.02-.02-.03-.01-.07-.02-.1,0l-.11,.06s-.02,.02-.01,.03c.04,.06,.1,.11,.19,.17l-.09,.05s-.02,.03,0,.04l.1,.06s.05,.01,.07,0l.1-.06c.1,.04,.2,.06,.3,.05,.1,0,.19-.03,.27-.08,.06-.03,.09-.07,.1-.1,.01-.03,0-.07,0-.1-.02-.04-.05-.08-.09-.12-.04-.04-.06-.07-.07-.09-.01-.02-.02-.04-.02-.05,0-.02,.01-.03,.04-.05,.03-.02,.07-.03,.11-.02,.04,0,.09,.02,.13,.04,.05,.03,.09,.06,.11,.1,.01,.02,.02,.03,.03,.05,0,0,0,.01,.02,.02,.03,.01,.07,.02,.1,0l.11-.06s.02-.02,.01-.03c-.02-.02-.03-.04-.05-.06-.02-.02-.05-.05-.09-.07l.07-.04s.02-.03,0-.04"/>
        </g>
        <g>
          <g>
            <path class="cls-3" d="M3.18,4.65h0s0,0,0,0Z"/>
            <path class="cls-3" d="M3.12,4.42c-.06-.12-.18-.23-.34-.33-.18-.11-.4-.17-.63-.21l-.08-.04h-.49l-.08,.04c-.24,.03-.46,.1-.64,.21-.16,.1-.28,.21-.34,.33l-.06,.03v.31c0,.2,.14,.4,.4,.55,.53,.31,1.39,.31,1.92,0,.26-.15,.39-.35,.39-.55v-.31l-.06-.03Z"/>
          </g>
          <g>
            <path class="cls-1" d="M2.78,3.89c-.53-.31-1.39-.31-1.92,0-.53,.31-.53,.81,0,1.11,.53,.31,1.39,.31,1.92,0,.53-.31,.53-.81,0-1.11"/>
            <path class="cls-3" d="M1.82,3.75c-.35,0-.67,.08-.91,.22-.23,.13-.35,.3-.35,.48,0,.18,.13,.35,.36,.48,.24,.14,.57,.22,.92,.22h0c.35,0,.67-.08,.91-.22,.23-.13,.35-.3,.35-.48,0-.18-.13-.35-.36-.48-.24-.14-.57-.22-.92-.22Z"/>
            <path class="cls-1" d="M1.87,3.81c-.35,0-.67,.08-.91,.22-.23,.13-.35,.3-.35,.48,0,.18,.13,.35,.36,.48,.24,.14,.57,.22,.92,.22h0c.35,0,.67-.08,.91-.22,.23-.13,.35-.3,.35-.48,0-.18-.13-.35-.36-.48-.24-.14-.57-.22-.92-.22Z"/>
          </g>
          <path class="cls-3" d="M2.54,4.07l-.1-.06s-.05-.01-.07,0l-.08,.05c-.11-.04-.21-.06-.32-.06-.1,0-.19,.03-.27,.07-.08,.05-.12,.09-.12,.14,0,.05,.02,.1,.07,.15,0,0,.02,.02,.04,.04,.04,.05,.07,.09,.08,.12,.01,.03,0,.05-.03,.07-.07,.04-.15,.03-.24-.02-.05-.03-.1-.07-.14-.11-.02-.02-.03-.04-.04-.07,0,0,0-.01-.02-.02-.03-.01-.07-.02-.1,0l-.11,.06s-.02,.02-.01,.03c.04,.06,.1,.11,.19,.17l-.09,.05s-.02,.03,0,.04l.1,.06s.05,.01,.07,0l.1-.06c.1,.04,.2,.06,.3,.05,.1,0,.19-.03,.27-.08,.06-.03,.09-.07,.1-.1,.01-.03,0-.07,0-.1-.02-.04-.05-.08-.09-.12-.04-.04-.06-.07-.07-.09-.01-.02-.02-.04-.02-.05,0-.02,.01-.03,.04-.05,.03-.02,.07-.03,.11-.02,.04,0,.09,.02,.13,.04,.05,.03,.09,.06,.11,.1,.01,.02,.02,.03,.03,.05,0,0,0,.01,.02,.02,.03,.01,.07,.02,.1,0l.11-.06s.02-.02,.01-.03c-.02-.02-.03-.04-.05-.06-.02-.02-.05-.05-.09-.07l.07-.04s.02-.03,0-.04"/>
        </g>
        <g>
          <g>
            <path class="cls-3" d="M3.04,4.24h0s0,0,0,0Z"/>
            <path class="cls-3" d="M2.98,4.02c-.06-.12-.18-.23-.34-.33-.18-.1-.4-.17-.63-.21l-.08-.04h-.49l-.08,.04c-.24,.03-.46,.1-.64,.21-.16,.1-.28,.21-.34,.33l-.06,.03v.31c0,.2,.14,.4,.4,.55,.53,.31,1.39,.31,1.92,0,.26-.15,.39-.35,.39-.55v-.31l-.06-.03Z"/>
          </g>
          <g>
            <path class="cls-1" d="M2.64,3.49c-.53-.31-1.39-.31-1.92,0-.53,.31-.53,.81,0,1.11,.53,.31,1.39,.31,1.92,0,.53-.31,.53-.81,0-1.11"/>
            <path class="cls-3" d="M1.67,3.35c-.35,0-.67,.08-.91,.22-.23,.13-.35,.3-.35,.48,0,.18,.13,.35,.36,.48,.24,.14,.57,.22,.92,.22h0c.35,0,.67-.08,.91-.22,.23-.13,.35-.3,.35-.48,0-.18-.13-.35-.36-.48-.24-.14-.57-.22-.92-.22Z"/>
            <path class="cls-1" d="M1.73,3.41c-.35,0-.67,.08-.91,.22-.23,.13-.35,.3-.35,.48,0,.18,.13,.35,.36,.48,.24,.14,.57,.22,.92,.22h0c.35,0,.67-.08,.91-.22,.23-.13,.35-.3,.35-.48,0-.18-.13-.35-.36-.48-.24-.14-.57-.22-.92-.22Z"/>
          </g>
          <path class="cls-3" d="M2.39,3.66l-.1-.06s-.05-.01-.07,0l-.08,.05c-.11-.04-.21-.06-.32-.06-.1,0-.19,.03-.27,.07-.08,.05-.12,.09-.12,.14,0,.05,.02,.1,.07,.15,0,0,.02,.02,.04,.04,.04,.05,.07,.09,.08,.12,.01,.03,0,.05-.03,.07-.07,.04-.15,.03-.24-.02-.05-.03-.1-.07-.14-.11-.02-.02-.03-.04-.04-.07,0,0,0-.01-.02-.02-.03-.01-.07-.02-.1,0l-.11,.06s-.02,.02-.01,.03c.04,.06,.1,.11,.19,.17l-.09,.05s-.02,.03,0,.04l.1,.06s.05,.01,.07,0l.1-.06c.1,.04,.2,.06,.3,.05,.1,0,.19-.03,.27-.08,.06-.03,.09-.07,.1-.1,.01-.03,0-.07,0-.1-.02-.04-.05-.08-.09-.12-.04-.04-.06-.07-.07-.09-.01-.02-.02-.04-.02-.05,0-.02,.01-.03,.04-.05,.03-.02,.07-.03,.11-.02,.04,0,.09,.02,.13,.04,.05,.03,.09,.06,.11,.1,.01,.02,.02,.03,.03,.05,0,0,0,.01,.02,.02,.03,.01,.07,.02,.1,0l.11-.06s.02-.02,.01-.03c-.02-.02-.03-.04-.05-.06-.02-.02-.05-.05-.09-.07l.07-.04s.02-.03,0-.04"/>
        </g>
        <g>
          <g>
            <path class="cls-3" d="M3,3.84h0s0,0,0,0Z"/>
            <path class="cls-3" d="M2.94,3.61c-.06-.12-.18-.23-.34-.33-.18-.11-.4-.17-.63-.21l-.08-.04h-.49l-.08,.04c-.24,.03-.46,.1-.64,.21-.16,.1-.28,.21-.34,.33l-.06,.03v.31c0,.2,.14,.4,.4,.55,.53,.31,1.39,.31,1.92,0,.26-.15,.39-.35,.39-.55v-.31l-.06-.03Z"/>
          </g>
          <g>
            <path class="cls-1" d="M2.6,3.08c-.53-.31-1.39-.31-1.92,0-.53,.31-.53,.81,0,1.11,.53,.31,1.39,.31,1.92,0,.53-.31,.53-.81,0-1.11"/>
            <path class="cls-3" d="M1.63,2.94c-.35,0-.67,.08-.91,.22-.23,.13-.35,.3-.35,.48,0,.18,.13,.35,.36,.48,.24,.14,.57,.22,.92,.22h0c.35,0,.67-.08,.91-.22,.23-.13,.35-.3,.35-.48,0-.18-.13-.35-.36-.48-.24-.14-.57-.22-.92-.22Z"/>
            <path class="cls-1" d="M1.68,3c-.35,0-.67,.08-.91,.22-.23,.13-.35,.3-.35,.48,0,.18,.13,.35,.36,.48,.24,.14,.57,.22,.92,.22h0c.35,0,.67-.08,.91-.22,.23-.13,.35-.3,.35-.48,0-.18-.13-.35-.36-.48-.24-.14-.57-.22-.92-.22Z"/>
          </g>
          <path class="cls-3" d="M2.35,3.26l-.1-.06s-.05-.01-.07,0l-.08,.05c-.11-.04-.21-.06-.32-.06-.1,0-.19,.03-.27,.07-.08,.05-.12,.09-.12,.14,0,.05,.02,.1,.07,.15,0,0,.02,.02,.04,.04,.04,.05,.07,.09,.08,.12,.01,.03,0,.05-.03,.07-.07,.04-.15,.03-.24-.02-.05-.03-.1-.07-.14-.11-.02-.02-.03-.04-.04-.07,0,0,0-.01-.02-.02-.03-.01-.07-.02-.1,0l-.11,.06s-.02,.02-.01,.03c.04,.06,.1,.11,.19,.17l-.09,.05s-.02,.03,0,.04l.1,.06s.05,.01,.07,0l.1-.06c.1,.04,.2,.06,.3,.05,.1,0,.19-.03,.27-.08,.06-.03,.09-.07,.1-.1,.01-.03,0-.07,0-.1-.02-.04-.05-.08-.09-.12-.04-.04-.06-.07-.07-.09-.01-.02-.02-.04-.02-.05,0-.02,.01-.03,.04-.05,.03-.02,.07-.03,.11-.02,.04,0,.09,.02,.13,.04,.05,.03,.09,.06,.11,.1,.01,.02,.02,.03,.03,.05,0,0,0,.01,.02,.02,.03,.01,.07,.02,.1,0l.11-.06s.02-.02,.01-.03c-.02-.02-.03-.04-.05-.06-.02-.02-.05-.05-.09-.07l.07-.04s.02-.03,0-.04"/>
        </g>
      </g>
      <text class="cls-2" transform="translate(0 10.48)"><tspan x="0" y="0">Credits</tspan></text>
    </g>
  </g>
</svg>