<?xml version="1.0" encoding="UTF-8"?>
<svg id="Layer_2" data-name="Layer 2" xmlns="http://www.w3.org/2000/svg" viewBox="0 0 22.28 26.62">
  <defs>
    <style>
      .cls-1 {
        fill: #2c8071;
      }

      .cls-1, .cls-2, .cls-3, .cls-4, .cls-5 {
        fill-rule: evenodd;
      }

      .cls-2 {
        fill: #359483;
      }

      .cls-3 {
        fill: #9fa5a6;
        opacity: .5;
      }

      .cls-4 {
        fill: #46a896;
      }

      .cls-5 {
        fill: #e5f3f6;
      }
    </style>
  </defs>
  <g id="Layer_1-2" data-name="Layer 1">
    <g>
      <g>
        <path class="cls-5" d="M5.75,.24s-.03,.01-.05,.02l.36-.21s0,0,0,0c.16-.09,.37-.03,.52,.05l2.9,1.68c.12,.06,.33,.36,.4,.48,.08,.13,.14,.24,.22,.37l.72,1.25s.04,.07,.06,.1l8.62,15.57,2.03,1.17s.08,.05,.12,.08c0,0,.01,.01,.02,.02,.29,.23,.56,.67,.6,1.05,0,0,0,0,0,.01,0,.04,0,.09,0,.13h0v.63c0,.23-.09,.4-.22,.48l-.36,.21c.13-.08,.22-.24,.22-.48v-.63s0-.09,0-.13c0-.01,0-.02,0-.03,0-.02,0-.04,0-.06,0-.01,0-.03,0-.04-.07-.31-.25-.63-.47-.84-.03-.03-.07-.06-.1-.09,0,0-.01-.01-.02-.02-.04-.03-.08-.06-.11-.08l-2.03-1.17L10.53,4.19s-.04-.07-.06-.1c0,0,0-.02-.01-.02-.02-.04-.04-.08-.06-.12-.26-.48-.54-1-.85-1.46-.11-.14-.26-.41-.42-.5L6.23,.31c-.17-.1-.29-.12-.48-.07Z"/>
        <path class="cls-3" d="M5.49,.74c0-.47,.33-.67,.74-.43l2.9,1.67c.31,.18,1.05,1.57,1.4,2.2l8.62,15.57,2.03,1.17c.41,.24,.74,.82,.74,1.29v.63c0,.47-.34,.66-.75,.43l-2.9-1.67c-.24-.14-.45-.39-.58-.67-.04-.05-.07-.11-.1-.17L8.23,3.81l-2.01-1.16c-.41-.24-.74-.82-.74-1.29V.74Z"/>
      </g>
      <g>
        <polygon class="cls-2" points="13.54 24.7 18.57 21.78 18.57 19.68 13.55 22.6 13.54 24.7"/>
        <polygon class="cls-4" points="13.55 22.6 18.57 19.68 17.13 18.85 12.11 21.77 13.55 22.6"/>
        <polygon class="cls-2" points="12.11 21.77 17.13 18.85 17.14 17.16 12.11 20.08 12.11 21.77"/>
        <polygon class="cls-4" points="12.11 20.08 17.14 17.16 15.7 16.33 10.68 19.25 12.11 20.08"/>
        <polygon class="cls-2" points="10.68 19.25 15.7 16.33 15.7 14.64 10.68 17.56 10.68 19.25"/>
        <polygon class="cls-4" points="10.68 17.56 15.7 14.64 14.26 13.81 9.24 16.73 10.68 17.56"/>
        <polygon class="cls-2" points="9.24 16.73 14.26 13.81 14.27 12.12 9.25 15.04 9.24 16.73"/>
        <polygon class="cls-4" points="9.25 15.04 14.27 12.12 12.83 11.29 7.81 14.21 9.25 15.04"/>
        <polygon class="cls-2" points="7.81 14.21 12.83 11.29 12.84 9.61 7.81 12.53 7.81 14.21"/>
        <polygon class="cls-4" points="7.81 12.53 12.84 9.61 11.4 8.78 6.38 11.7 7.81 12.53"/>
        <polygon class="cls-2" points="6.38 11.7 11.4 8.78 11.41 7.09 6.38 10.01 6.38 11.7"/>
        <polygon class="cls-4" points="6.38 10.01 11.41 7.09 9.96 6.26 4.94 9.18 6.38 10.01"/>
        <polygon class="cls-1" points="3.12 6.43 3.12 6.85 4.56 7.68 4.55 9.36 5.99 10.2 5.99 11.88 7.43 12.71 7.42 14.4 8.86 15.23 8.85 16.91 10.29 17.75 10.29 19.43 11.73 20.27 11.72 21.95 13.16 22.79 13.16 24.48 13.54 24.7 13.55 22.6 12.11 21.77 12.11 20.08 10.68 19.25 10.68 17.56 9.24 16.73 9.25 15.04 7.81 14.21 7.81 12.53 6.38 11.7 6.38 10.01 4.94 9.18 4.95 7.49 3.12 6.43"/>
        <polygon class="cls-2" points="4.94 9.18 9.96 6.26 9.97 4.57 4.95 7.49 4.94 9.18"/>
        <polygon class="cls-4" points="4.95 7.49 9.97 4.57 8.15 3.51 3.12 6.43 4.95 7.49"/>
      </g>
      <g>
        <path class="cls-5" d="M.27,3.47s-.03,.01-.05,.02l.36-.21s0,0,0,0c.16-.09,.37-.03,.52,.05l2.9,1.68c.12,.06,.33,.36,.4,.48,.08,.13,.15,.24,.22,.37l.72,1.25s.04,.07,.06,.1l8.62,15.57,2.03,1.17s.08,.05,.11,.08c0,0,.01,.01,.02,.02,.29,.23,.56,.67,.6,1.05,0,0,0,0,0,.01,0,.04,0,.09,0,.13h0s0,.63,0,.63c0,.23-.08,.4-.22,.48l-.36,.21c.13-.08,.22-.24,.22-.48v-.63s0-.09,0-.13c0-.01,0-.02,0-.03,0-.02,0-.04-.01-.06,0-.01,0-.03,0-.04-.07-.31-.25-.63-.47-.84-.03-.03-.07-.06-.1-.09,0,0-.01-.01-.02-.02-.04-.03-.08-.05-.11-.08l-2.03-1.17L5.05,7.43s-.04-.07-.06-.1c0,0,0-.02-.01-.02-.02-.04-.04-.08-.06-.12-.26-.48-.54-1-.85-1.46-.11-.14-.26-.41-.42-.5L.75,3.55c-.17-.1-.29-.12-.48-.07Z"/>
        <path class="cls-3" d="M0,3.98c0-.47,.33-.67,.75-.43l2.9,1.67c.31,.18,1.05,1.57,1.4,2.2l8.62,15.57,2.03,1.17c.41,.24,.74,.82,.74,1.29v.63c0,.47-.34,.66-.75,.43l-2.9-1.67c-.24-.14-.45-.39-.58-.67-.03-.05-.07-.11-.1-.17L2.75,7.05,.74,5.89C.33,5.66,0,5.08,0,4.61v-.63Z"/>
      </g>
    </g>
  </g>
</svg>