<?xml version="1.0" encoding="UTF-8"?>
<svg id="Layer_2" data-name="Layer 2" xmlns="http://www.w3.org/2000/svg" viewBox="0 0 28.65 51.38">
  <defs>
    <style>
      .cls-1 {
        fill: #8f613c;
      }

      .cls-1, .cls-2, .cls-3 {
        fill-rule: evenodd;
      }

      .cls-4, .cls-3 {
        fill: #bd8659;
      }

      .cls-2 {
        fill: #734c2d;
      }
    </style>
  </defs>
  <g id="Layer_1-2" data-name="Layer 1">
    <g>
      <path class="cls-4" d="M6.14,30.21l-3.78-2.23c-3.14-1.85-3.14-6.39,0-8.25l2.15-1.27c1.5-.89,3.37-.89,4.87,0l3.78,2.23c3.14,1.85,3.14,6.39,0,8.25l-2.15,1.27c-1.5,.89-3.37,.89-4.87,0Z"/>
      <g>
        <polygon class="cls-1" points="18.55 49 28.65 43.13 28.64 45.51 18.54 51.38 18.55 49"/>
        <polygon class="cls-3" points="16.52 47.83 26.62 41.96 28.65 43.13 18.55 49 16.52 47.83"/>
        <polygon class="cls-1" points="16.5 45.54 26.6 39.67 26.59 42.04 16.49 47.91 16.5 45.54"/>
        <polygon class="cls-3" points="14.47 44.37 24.57 38.5 26.6 39.67 16.5 45.54 14.47 44.37"/>
        <polygon class="cls-1" points="14.5 41.96 24.6 36.09 24.59 38.46 14.49 44.33 14.5 41.96"/>
        <polygon class="cls-3" points="12.48 40.79 22.58 34.92 24.6 36.09 14.5 41.96 12.48 40.79"/>
        <polygon class="cls-1" points="12.48 38.42 22.58 32.55 22.58 34.92 12.48 40.79 12.48 38.42"/>
        <polygon class="cls-3" points="10.46 37.25 20.56 31.38 22.58 32.55 12.48 38.42 10.46 37.25"/>
        <polygon class="cls-1" points="10.47 34.88 20.57 29.01 20.56 31.38 10.46 37.25 10.47 34.88"/>
        <polygon class="cls-3" points="8.44 33.71 18.54 27.84 20.57 29.01 10.47 34.88 8.44 33.71"/>
        <polygon class="cls-2" points="12.5 38.32 12.49 40.7 14.52 41.87 14.51 44.25 16.53 45.41 16.53 47.79 18.55 48.95 18.54 51.32 18 51.01 18 49.21 15.98 48.05 15.99 45.67 13.97 44.5 13.97 42.13 11.95 40.96 11.95 38.59 9.93 37.42 9.93 36.84 12.5 38.32"/>
        <polygon class="cls-2" points="8.45 31.33 8.44 33.71 10.47 34.88 10.46 37.25 12.48 38.42 12.48 40.79 14.5 41.96 14.49 44.33 13.95 44.02 13.95 42.22 11.93 41.05 11.94 38.68 9.92 37.51 9.92 35.14 7.9 33.97 7.9 31.59 5.88 30.43 5.88 29.85 8.45 31.33"/>
        <polygon class="cls-1" points="8.45 31.33 18.55 25.46 18.54 27.84 8.44 33.71 8.45 31.33"/>
        <polygon class="cls-3" points="5.88 29.85 5.5 29.65 8.15 27.32 15.75 23.83 15.98 23.98 18.55 25.46 8.45 31.33 6.07 29.96 5.88 29.85"/>
      </g>
      <g>
        <polygon class="cls-1" points="15.23 21.66 5.13 15.79 5.13 18.16 15.23 24.03 15.23 21.66"/>
        <polygon class="cls-3" points="17.25 20.49 7.15 14.62 5.13 15.79 15.23 21.66 17.25 20.49"/>
        <polygon class="cls-1" points="17.07 18.13 6.97 12.26 6.97 14.63 17.07 20.5 17.07 18.13"/>
        <polygon class="cls-3" points="19.09 16.96 8.99 11.09 6.97 12.26 17.07 18.13 19.09 16.96"/>
        <polygon class="cls-1" points="19.08 14.58 8.98 8.72 8.99 11.09 19.09 16.96 19.08 14.58"/>
        <polygon class="cls-3" points="21.1 13.42 11 7.55 8.98 8.72 19.08 14.58 21.1 13.42"/>
        <polygon class="cls-1" points="21.1 11.04 11 5.17 11 7.55 21.1 13.42 21.1 11.04"/>
        <polygon class="cls-3" points="23.12 9.87 13.02 4 11 5.17 21.1 11.04 23.12 9.87"/>
        <polygon class="cls-2" points="23.12 7.49 23.12 9.87 21.1 11.04 21.1 13.42 19.08 14.58 19.09 16.96 17.07 18.13 17.07 20.5 17.62 20.18 17.61 18.39 19.63 17.22 19.63 14.84 21.65 13.68 21.64 11.3 23.67 10.13 23.66 7.76 25.68 6.59 25.68 6.01 23.12 7.49"/>
        <polygon class="cls-2" points="21.28 10.92 21.29 13.3 19.26 14.47 19.27 16.85 17.25 18.02 17.25 20.39 15.23 21.56 15.24 23.93 15.78 23.61 15.78 21.82 17.8 20.65 17.79 18.28 19.81 17.11 19.81 14.73 21.84 13.56 21.83 11.19 23.85 10.02 23.85 9.44 21.28 10.92"/>
        <polygon class="cls-1" points="23.12 7.49 13.02 1.62 13.02 4 23.12 9.87 23.12 7.49"/>
        <polygon class="cls-3" points="25.68 6.01 26.07 5.82 23.41 3.49 15.81 0 15.58 .14 13.02 1.62 23.12 7.49 25.49 6.12 25.68 6.01"/>
      </g>
    </g>
  </g>
</svg>